<?xml version="1.0" encoding="UTF-8"?>
<svg xmlns="http://www.w3.org/2000/svg" viewBox="72 70 1277 617" width="1277" height="617">
<g transform="translate(0.000000,768.000000) scale(0.100000,-0.100000)" fill="#2C1A0E" stroke="none">
    <path d="M5570 6723 c-261 -26 -387 -54 -574 -127 -153 -60 -256 -113 -351
-181 -314 -225 -481 -488 -504 -793 -8 -112 6 -219 39 -287 29 -60 135 -156
217 -197 59 -29 78 -33 143 -33 90 0 134 18 138 56 2 21 -3 29 -31 42 -57 27
-113 90 -136 151 -25 69 -28 205 -7 318 46 239 232 485 482 635 204 123 370
178 639 214 170 22 375 -12 531 -88 319 -155 390 -591 154 -943 -75 -113 -224
-259 -355 -347 -144 -97 -360 -186 -532 -219 -107 -20 -106 -20 -99 22 4 19
10 43 13 51 4 10 2 14 -4 10 -6 -4 -14 -22 -17 -42 -4 -19 -11 -37 -16 -40 -5
-3 0 25 11 62 36 120 32 111 39 83 5 -20 13 -5 38 75 95 299 217 657 286 833
25 65 34 101 29 122 -3 17 -9 30 -14 30 -5 0 -9 7 -9 16 0 9 -5 12 -12 8 -6
-4 -20 4 -32 18 -12 15 -38 33 -58 41 -35 15 -39 14 -62 -4 -24 -19 -24 -19
-19 1 4 16 0 20 -22 20 -64 0 -115 -64 -213 -264 -124 -254 -230 -542 -336
-916 -30 -102 -36 -115 -57 -119 -35 -5 -40 -21 -19 -57 18 -29 19 -35 5 -80
-13 -45 -36 -143 -72 -304 -40 -184 -73 -430 -73 -553 0 -74 35 -143 78 -154
15 -3 39 -15 54 -26 15 -11 34 -17 43 -13 9 3 23 -1 31 -9 21 -20 28 -19 62
10 21 18 32 21 35 13 3 -9 11 -7 25 8 16 17 24 49 36 135 26 186 62 354 132
619 51 193 43 180 111 180 63 1 182 14 253 29 25 6 81 17 125 27 366 77 759
308 963 564 132 167 184 313 184 520 1 137 -19 215 -90 355 -93 184 -325 365
-573 448 -148 49 -296 76 -439 80 -74 2 -151 2 -170 0z m-855 -361 c-6 -5 -35
-28 -65 -52 -30 -24 -77 -64 -105 -89 l-50 -46 45 49 c41 44 165 146 178 146
4 0 2 -4 -3 -8z m1767 -765 c-29 -64 -107 -187 -119 -187 -3 0 3 12 13 28 30
45 101 171 114 203 7 16 15 28 17 25 2 -2 -9 -33 -25 -69z m-1378 -313 c-53
-165 -99 -301 -101 -303 -1 -2 -5 -2 -7 0 -11 11 190 617 201 605 2 -2 -39
-138 -93 -302z m1557 174 c-23 -40 -63 -95 -88 -123 -54 -60 -47 -45 20 44 27
36 61 87 75 113 15 26 28 45 31 43 2 -2 -15 -37 -38 -77z m76 -1 c-20 -35 -43
-69 -51 -76 -8 -7 6 23 32 67 56 94 70 101 19 9z m-1343 -246 c-10 -28 -19
-49 -21 -47 -2 2 3 27 13 55 9 29 18 50 20 48 3 -2 -3 -27 -12 -56z m-109
-131 c-47 -153 -59 -184 -50 -135 9 44 86 287 90 283 2 -2 -16 -69 -40 -148z
m-350 -361 l-14 -44 6 40 c6 42 12 59 19 52 2 -2 -3 -23 -11 -48z m-40 -180
c-23 -94 -30 -82 -8 16 9 43 19 73 21 66 2 -6 -4 -43 -13 -82z M8605 6480
c-43 -42 -68 -79 -123 -189 -37 -75 -83 -169 -100 -210 -38 -85 -15 -82 -235
-33 -198 45 -292 55 -447 49 -191 -7 -301 -44 -403 -136 -45 -40 -87 -120 -87
-166 0 -34 26 -79 41 -69 5 3 18 -5 28 -17 21 -27 35 -20 60 29 11 20 30 47
43 59 55 51 263 90 418 78 187 -14 474 -69 467 -88 -2 -7 -36 -109 -75 -227
-82 -250 -118 -377 -162 -585 -41 -194 -51 -222 -123 -330 -136 -203 -318
-401 -457 -495 -145 -98 -301 -135 -387 -92 -48 25 -89 71 -117 132 -16 37
-20 66 -20 159 l-1 114 85 17 c181 38 325 107 450 217 143 125 230 269 238
397 7 113 -2 141 -61 200 -74 75 -146 107 -264 119 -82 8 -109 7 -171 -8 -166
-39 -322 -149 -455 -321 -158 -204 -242 -450 -238 -694 3 -158 53 -282 152
-380 74 -74 145 -114 258 -146 84 -24 105 -26 200 -21 114 5 204 33 318 98
120 69 321 244 445 390 l65 76 6 -91 c10 -148 54 -255 134 -326 72 -63 117
-82 280 -116 37 -7 125 17 196 53 126 66 261 210 409 439 157 241 254 428 244
470 -7 25 -61 68 -75 60 -5 -4 -11 0 -14 6 -8 25 -36 -13 -134 -176 -209 -350
-370 -551 -507 -631 -149 -87 -200 77 -135 433 49 273 168 718 277 1042 57
169 28 154 242 125 317 -42 584 1 715 116 33 29 49 59 24 43 -7 -4 -4 7 6 24
17 28 17 31 2 47 -10 9 -17 21 -17 26 0 6 -5 7 -11 3 -6 -3 -15 -1 -19 6 -6
10 -17 6 -44 -18 -67 -59 -211 -87 -405 -79 -135 5 -336 32 -362 47 -16 10 -6
47 82 288 57 157 70 204 49 172 -7 -11 -8 -6 -4 17 8 42 -1 69 -19 54 -11 -8
-17 -3 -27 24 -11 28 -18 34 -37 31 -13 -3 -22 0 -20 7 1 6 -6 13 -16 15 -12
2 -35 -14 -69 -50 l-50 -53 33 47 c35 51 35 52 2 62 -18 6 -34 -3 -78 -44z
m-310 -914 c-75 -228 -175 -581 -175 -617 0 -25 -20 -65 -20 -41 -1 74 238
877 256 859 2 -2 -25 -93 -61 -201z m-857 -391 c42 -128 -87 -336 -295 -476
-64 -44 -142 -79 -174 -79 -22 0 108 296 173 394 18 28 17 28 -11 -4 -17 -19
-37 -49 -46 -67 -17 -35 -43 -59 -32 -29 16 40 100 146 161 201 80 73 140 107
181 103 25 -3 32 -9 43 -43z m-529 -47 c-39 -40 -91 -103 -116 -140 -44 -67
-65 -89 -42 -45 28 53 101 146 157 200 85 80 85 71 1 -15z m158 -100 c-14 -18
-46 -70 -72 -115 -56 -100 -71 -111 -20 -15 38 70 101 162 111 162 3 0 -6 -15
-19 -32z M2415 3929 c-339 -17 -693 -149 -925 -345 -244 -205 -373 -470 -357
-729 8 -127 28 -178 98 -248 74 -73 168 -119 254 -123 66 -3 118 14 134 44 9
16 4 22 -29 41 -123 69 -168 201 -136 391 47 271 253 521 547 665 188 92 489
149 654 125 228 -33 359 -100 445 -228 64 -94 82 -152 87 -283 6 -121 -14
-213 -68 -322 -104 -206 -322 -401 -573 -510 -92 -39 -237 -81 -314 -90 l-44
-5 7 35 c3 19 9 42 12 50 5 12 3 14 -7 8 -10 -6 -12 -4 -7 9 4 10 7 23 7 29 0
7 4 6 9 -2 7 -10 22 26 52 120 88 282 183 561 248 729 24 64 26 84 8 102 -7 7
-15 18 -16 23 -2 6 -7 9 -12 7 -6 -1 -20 8 -32 21 -35 37 -70 48 -96 31 -16
-12 -21 -12 -19 -2 2 7 -8 14 -21 16 -96 15 -295 -407 -461 -975 -43 -145 -57
-183 -71 -183 -24 0 -32 -29 -15 -55 13 -19 12 -31 -8 -106 -65 -238 -115
-544 -116 -702 0 -84 26 -143 68 -153 15 -4 37 -15 50 -25 13 -10 29 -16 36
-13 7 3 19 -2 26 -11 18 -21 36 -19 57 8 10 13 23 22 29 20 24 -8 42 37 59
147 25 167 100 499 146 646 10 31 11 32 91 39 442 38 833 206 1090 469 53 54
76 85 73 96 -3 10 2 23 12 31 16 13 17 12 4 -4 -8 -9 -11 -20 -8 -23 8 -8 66
80 98 152 39 85 59 186 59 293 0 110 -18 182 -76 299 -98 200 -286 345 -565
436 -161 53 -273 65 -484 55z m-895 -424 c-24 -25 -46 -45 -49 -45 -3 0 15 20
39 45 24 25 46 45 49 45 3 0 -15 -20 -39 -45z m1682 -612 c-16 -32 -40 -69
-52 -83 -18 -21 -17 -17 5 20 14 25 36 64 47 87 12 24 23 41 26 39 2 -2 -10
-30 -26 -63z m-1182 -163 c-27 -85 -65 -208 -85 -273 -20 -65 -39 -116 -42
-113 -7 7 97 354 149 494 38 102 26 45 -22 -108z m1341 43 c-32 -49 -91 -121
-91 -112 0 3 25 39 55 79 30 40 55 78 55 83 0 6 3 8 6 4 4 -3 -8 -28 -25 -54z
m-1202 -312 c-13 -39 -25 -69 -27 -67 -2 3 7 36 19 75 13 39 25 69 27 67 2 -3
-7 -36 -19 -75z M9438 3887 c-67 -25 -125 -66 -181 -126 -232 -251 -465 -880
-571 -1542 -16 -100 -35 -140 -165 -354 -79 -130 -190 -255 -226 -255 -23 0
-35 43 -35 128 0 122 44 315 154 675 20 65 36 131 36 147 0 31 -15 48 -23 28
-3 -8 -6 -6 -6 5 -1 9 -7 17 -15 17 -9 0 -12 7 -9 20 3 12 0 20 -8 20 -7 0
-21 8 -32 18 -19 16 -21 15 -60 -28 -39 -43 -40 -44 -19 -9 22 36 22 37 3 42
-25 6 -54 -14 -80 -57 l-21 -33 -38 36 c-56 54 -125 74 -227 69 -72 -4 -95
-10 -160 -42 -178 -88 -305 -261 -415 -563 -47 -128 -145 -279 -251 -386 -70
-70 -81 -78 -111 -75 -28 2 -35 9 -45 38 -18 54 -15 214 7 337 39 216 133 574
221 841 39 116 55 152 67 152 9 0 64 -7 122 -16 128 -18 479 -26 575 -13 79
11 207 50 276 85 132 66 195 187 150 289 -22 48 -55 80 -76 72 -18 -8 -20 -40
-3 -67 10 -16 9 -24 -8 -47 -74 -100 -295 -166 -554 -166 -153 0 -420 21 -434
33 -5 5 11 65 38 143 28 80 44 141 40 153 -4 13 -3 15 3 6 7 -9 13 -3 20 23 6
19 8 35 3 35 -4 0 -5 12 -2 26 4 24 2 25 -18 19 -18 -6 -22 -4 -17 8 7 18 -27
52 -42 42 -6 -3 -11 1 -11 9 0 26 -20 18 -59 -21 -29 -31 -32 -32 -18 -10 10
16 16 35 13 43 -5 13 -9 13 -33 0 -16 -8 -38 -25 -50 -38 -34 -36 -104 -164
-158 -286 l-47 -108 -131 23 c-290 49 -453 66 -607 60 -180 -8 -284 -27 -377
-71 -79 -38 -164 -110 -183 -155 -15 -37 -10 -81 12 -95 14 -8 24 -3 53 25 43
44 118 81 221 111 70 20 100 23 259 22 126 0 226 -7 335 -22 200 -27 352 -51
357 -55 1 -2 -19 -71 -46 -153 -67 -203 -137 -465 -172 -647 -26 -135 -34
-160 -75 -232 -126 -220 -274 -405 -322 -405 -43 0 -48 113 -11 245 12 44 23
90 23 102 1 12 3 19 5 17 7 -7 52 130 47 143 -3 6 0 13 5 15 16 5 47 149 55
254 8 117 -5 168 -58 229 -62 71 -174 88 -268 40 -104 -53 -262 -233 -387
-442 -52 -87 -69 -110 -58 -80 8 21 65 371 65 398 0 54 -21 89 -64 109 -137
61 -175 24 -251 -242 -19 -67 -42 -156 -50 -197 -12 -55 -31 -101 -77 -180
-118 -205 -221 -342 -296 -395 -33 -23 -44 -26 -61 -17 -57 31 -29 269 74 616
76 253 80 279 61 320 -9 19 -23 35 -31 35 -8 0 -15 5 -15 11 0 7 -9 9 -22 6
-14 -4 -29 0 -40 10 -17 15 -20 15 -48 -6 -24 -17 -30 -19 -30 -6 0 24 -26 18
-58 -14 -35 -35 -121 -247 -156 -382 -24 -96 -72 -189 -174 -344 -109 -164
-245 -309 -285 -303 -21 3 -22 7 -21 83 2 73 8 95 69 255 95 250 115 308 121
366 9 70 -2 117 -33 154 -45 54 -95 72 -237 86 -70 7 -130 15 -133 18 -3 2 9
33 25 68 54 114 74 188 76 268 1 93 -12 117 -85 154 -67 33 -135 35 -198 4
-65 -31 -144 -116 -183 -195 -29 -61 -32 -77 -33 -158 0 -81 3 -95 28 -141 25
-45 64 -83 117 -115 13 -7 4 -31 -52 -143 -38 -74 -68 -144 -68 -157 0 -12 3
-20 6 -17 3 4 17 0 31 -7 51 -27 87 10 204 208 l34 58 100 -7 c55 -4 102 -8
104 -10 2 -2 -21 -54 -51 -116 -181 -368 -206 -614 -77 -746 69 -71 218 -96
313 -53 63 27 198 163 282 283 l62 87 6 -52 c17 -122 86 -208 199 -246 73 -25
106 -26 176 -6 61 19 167 112 238 212 25 35 46 63 47 63 2 0 1 -35 -2 -77 -2
-43 1 -97 7 -119 11 -42 38 -65 52 -43 5 8 11 5 18 -10 7 -11 20 -21 31 -21
10 0 20 -5 22 -11 4 -13 56 -14 90 -1 20 8 37 34 71 104 201 419 242 496 357
668 78 115 147 201 199 244 77 64 77 68 -19 -224 -79 -239 -100 -329 -107
-461 -9 -168 33 -254 152 -311 78 -36 174 -39 238 -7 61 32 160 131 224 226
56 82 72 90 73 36 0 -41 42 -135 77 -174 42 -46 116 -84 200 -100 54 -11 69
-11 117 4 30 10 81 37 113 61 55 40 153 142 153 158 0 5 4 8 8 8 5 0 14 -19
21 -42 24 -81 140 -168 246 -184 118 -17 239 75 381 290 l39 59 6 -64 c9 -101
37 -178 84 -224 74 -74 208 -96 289 -46 65 41 172 163 239 275 l34 57 5 -125
c5 -134 17 -169 60 -181 13 -3 32 -10 43 -14 58 -23 84 -28 93 -19 6 6 21 15
33 22 19 9 28 33 54 136 71 287 244 643 388 797 102 109 183 130 208 56 25
-73 10 -435 -20 -481 -3 -5 -56 -34 -118 -65 -61 -30 -140 -74 -175 -98 -168
-114 -267 -278 -244 -404 18 -92 136 -152 281 -143 247 16 483 289 565 654
l11 51 92 44 c51 24 96 45 100 47 5 2 6 -45 2 -104 -7 -121 3 -210 37 -319 18
-56 32 -80 73 -121 94 -94 230 -124 332 -71 65 33 165 126 223 206 46 62 60
73 60 45 0 -21 54 -122 83 -154 52 -58 147 -114 232 -136 75 -20 201 -18 268
5 199 69 437 268 574 481 32 50 87 135 122 190 36 55 67 100 70 100 12 -1 205
-339 198 -347 -3 -3 -42 -20 -87 -38 -185 -75 -355 -207 -411 -320 -119 -243
44 -446 361 -445 164 1 318 85 427 232 87 119 116 311 73 483 -19 74 -20 91
-9 98 8 4 55 30 104 58 116 66 178 113 265 205 74 78 87 114 53 140 -32 24
-58 15 -108 -37 -69 -71 -189 -159 -288 -213 -46 -25 -87 -46 -90 -46 -3 0
-22 28 -43 62 -20 35 -69 108 -108 163 -40 55 -94 135 -120 177 -54 87 -55 77
24 199 53 83 101 211 107 284 3 48 0 66 -16 92 -51 80 -188 103 -289 48 -74
-40 -130 -99 -164 -171 -61 -130 -59 -249 5 -409 l35 -88 -42 -66 c-23 -36
-62 -101 -86 -144 -62 -109 -185 -271 -267 -348 -139 -131 -309 -219 -397
-205 -61 10 -112 50 -142 112 -21 44 -26 69 -27 140 l-2 88 90 21 c119 29 202
64 278 118 159 114 257 265 257 395 0 84 -53 151 -155 199 -52 24 -72 27 -155
27 -111 0 -176 -20 -276 -85 -150 -97 -298 -314 -340 -498 -16 -67 -82 -181
-191 -327 -71 -96 -168 -175 -194 -158 -47 29 -61 233 -31 463 l20 154 69 71
c282 291 529 710 613 1041 62 247 23 396 -120 455 -67 28 -153 24 -220 -10
-155 -79 -350 -412 -486 -830 -49 -151 -108 -383 -139 -545 -14 -77 -28 -149
-30 -161 -3 -14 -35 -36 -103 -72 l-99 -52 -6 108 c-9 168 -51 278 -138 363
-94 92 -224 116 -333 63 -101 -49 -249 -228 -341 -412 -20 -41 -38 -72 -41
-70 -2 3 10 65 26 139 60 268 52 247 117 302 265 227 521 596 583 841 14 54
20 112 20 181 0 99 -1 104 -32 151 -56 83 -165 122 -250 91z m127 -273 c-1
-76 -6 -115 -24 -169 -47 -145 -174 -366 -289 -505 -73 -87 -136 -154 -129
-136 4 9 20 63 37 120 16 57 46 148 66 202 20 55 36 110 36 123 0 19 2 21 10
10 7 -10 9 -8 5 9 -3 12 -2 20 2 17 5 -2 27 39 50 93 23 53 59 129 80 168 44
78 127 177 145 171 7 -3 11 -38 11 -103z m1325 10 c45 -116 -74 -493 -250
-794 -53 -91 -231 -352 -237 -347 -7 8 87 364 137 517 95 290 219 549 302 632
25 25 37 23 48 -8z m-1755 -196 c-50 -101 -112 -240 -138 -309 -72 -197 -164
-514 -199 -692 -17 -89 -33 -164 -35 -166 -12 -17 -7 25 22 164 80 391 239
849 376 1088 37 64 59 97 63 97 1 0 -39 -82 -89 -182z m1316 -55 c-100 -202
-193 -466 -268 -767 -15 -60 -29 -104 -31 -97 -12 36 112 453 200 671 46 114
133 290 144 290 2 0 -18 -44 -45 -97z m-3572 -580 c-29 -92 -74 -251 -101
-353 -27 -102 -46 -167 -43 -145 11 93 181 682 193 671 2 -3 -20 -80 -49 -173z
m5401 80 c-1 -62 -60 -233 -80 -233 -16 0 -21 105 -7 152 27 88 87 144 87 81z
m-8420 -95 c-5 -24 -21 -72 -36 -106 -31 -71 -44 -68 -44 13 0 67 15 118 47
156 l27 32 7 -26 c4 -14 3 -45 -1 -69z m4208 -261 c43 -46 46 -76 13 -164 -44
-119 -190 -405 -262 -513 -66 -99 -178 -220 -203 -220 -21 0 -29 17 -37 75
-14 111 27 297 107 483 30 69 54 127 54 129 0 2 -5 1 -12 -3 -7 -4 -8 -3 -4 5
4 6 11 9 16 6 12 -8 33 33 24 47 -4 6 -3 8 3 5 13 -8 37 18 29 31 -6 10 82 89
135 121 47 29 109 28 137 -2z m3383 -14 c31 -81 -25 -207 -143 -318 -71 -67
-179 -135 -215 -135 -19 0 -10 44 24 119 13 30 21 61 18 68 -2 8 -1 12 3 10 4
-3 26 26 49 64 52 86 47 91 -7 7 -22 -33 -40 -57 -40 -52 0 16 70 115 86 121
7 3 12 8 9 12 -4 8 93 97 129 118 38 22 75 16 87 -14z m-6671 -59 c-16 -38
-30 -64 -30 -57 0 15 52 135 56 130 2 -2 -10 -35 -26 -73z m6244 4 c-28 -29
-66 -74 -84 -100 -18 -27 -35 -48 -37 -48 -13 0 64 106 113 154 63 64 70 58 8
-6z m117 -100 c-15 -24 -37 -59 -49 -78 -12 -19 -22 -30 -22 -24 0 18 84 144
96 144 2 0 -9 -19 -25 -42z m-2032 -15 c-12 -21 -27 -42 -32 -48 -11 -11 9 29
31 63 24 37 25 25 1 -15z m-1448 -184 c-11 -24 -20 -41 -20 -37 -1 12 31 89
35 85 3 -2 -4 -24 -15 -48z m-1591 -69 c-16 -52 -30 -104 -31 -115 -1 -17 -2
-17 -6 -3 -5 18 16 100 44 176 28 74 23 40 -7 -58z m-2082 -43 c-23 -53 -43
-95 -46 -92 -5 4 10 43 53 139 14 32 28 56 30 54 3 -2 -14 -48 -37 -101z
m5458 -224 c-55 -153 -169 -307 -253 -342 -49 -20 -63 -10 -63 47 0 93 86 194
250 293 36 21 68 39 72 39 4 0 1 -17 -6 -37z m40 -93 c-25 -51 -83 -140 -91
-140 -2 0 15 30 37 67 22 37 47 83 55 101 8 19 17 32 19 29 3 -3 -6 -28 -20
-57z m2850 -26 c9 -59 -3 -155 -26 -215 -43 -115 -156 -218 -248 -227 -44 -4
-53 -1 -82 25 -45 40 -53 118 -20 182 27 53 91 124 148 163 45 31 202 118 214
118 4 0 10 -21 14 -46z m-2712 -54 c-15 -28 -33 -55 -40 -61 -8 -6 3 17 23 50
43 74 55 81 17 11z m2939 -227 c-7 -20 -62 -103 -68 -103 -2 0 13 27 32 60 37
61 47 74 36 43z M4937 3370 c-74 -58 -47 -210 37 -210 38 0 59 20 75 72 32 98
-44 191 -112 138z M5134 3298 c-91 -84 -41 -229 59 -171 66 39 93 147 47 185
-33 27 -66 22 -106 -14z M4741 3224 c-37 -47 -21 -147 28 -174 11 -5 31 -10
45 -10 43 0 73 70 56 130 -22 77 -89 104 -129 54z M5234 3101 c-59 -36 -85
-135 -42 -165 28 -20 42 -20 82 -1 35 17 76 79 76 114 0 27 -42 71 -67 71 -10
0 -32 -9 -49 -19z M4906 3049 c-51 -27 -133 -110 -142 -143 -8 -35 2 -72 23
-82 10 -4 57 -10 104 -14 74 -5 93 -10 136 -38 128 -82 187 11 109 174 -44 91
-82 124 -144 124 -27 -1 -63 -10 -86 -21z"/>
  </g>
  <g transform="translate(0.000000,768.000000) scale(0.100000,-0.100000)" fill="#f1eeea" stroke="none">
    <path d="M5523 6723 c15 -2 39 -2 55 0 15 2 2 4 -28 4 -30 0 -43 -2 -27 -4z
M5788 6723 c18 -2 45 -2 60 0 15 2 0 4 -33 4 -33 0 -45 -2 -27 -4z M5940 6711
c0 -7 111 -33 117 -27 2 2 -23 10 -57 19 -33 8 -60 12 -60 8z M4808 6527 c-37
-18 -68 -35 -68 -40 0 -6 136 57 149 69 13 12 -22 -1 -81 -29z M8670 6533 c0
-2 12 -8 27 -14 15 -6 23 -13 18 -17 -6 -4 -23 -25 -39 -47 -24 -34 -21 -32
22 13 33 36 57 52 69 50 10 -2 17 -9 16 -15 -2 -7 7 -10 20 -7 19 3 26 -3 37
-31 11 -28 16 -32 27 -23 11 9 15 7 20 -10 4 -18 7 -19 19 -7 20 19 18 23 -16
30 -16 4 -30 11 -30 16 0 6 -4 7 -10 4 -5 -3 -10 1 -10 10 0 9 -14 22 -30 29
-17 7 -28 15 -24 19 3 3 -10 1 -31 -6 -25 -7 -39 -8 -43 0 -6 9 -42 15 -42 6z
M5703 6523 c26 -2 67 -2 90 0 23 2 2 3 -48 3 -49 0 -68 -1 -42 -3z M8610 6495
c-12 -13 -27 -22 -32 -19 -5 3 -7 0 -6 -8 2 -7 -2 -12 -8 -11 -6 1 -11 -5 -11
-13 0 -7 1 -14 2 -14 0 0 21 20 45 45 24 25 42 45 39 45 -3 0 -16 -11 -29 -25z
M5440 6491 c-25 -7 -25 -7 -2 -13 12 -3 22 -2 22 4 0 6 9 8 20 5 11 -3 20 -1
20 4 0 10 -23 10 -60 0z M6013 6483 c9 -2 17 -8 17 -11 0 -4 12 -8 26 -9 15 0
30 -6 34 -13 5 -8 10 -9 14 -2 6 10 -75 43 -98 41 -6 -1 -3 -3 7 -6z M4683
6455 c-23 -12 -39 -25 -36 -28 5 -5 83 41 83 49 0 5 0 6 -47 -21z M5300 6455
c-19 -7 -28 -13 -20 -13 8 0 31 6 50 13 19 7 28 13 20 13 -8 0 -31 -6 -50 -13z
M6530 6459 c41 -42 162 -151 145 -130 -11 13 -19 26 -17 30 1 3 -2 6 -7 6 -6
0 -16 6 -22 13 -7 6 -9 12 -5 12 5 0 3 7 -4 15 -7 8 -16 12 -21 9 -5 -3 -12 2
-15 10 -3 9 -11 16 -17 16 -6 0 -20 8 -31 17 -12 10 -14 10 -6 2z M4649 6321
c-35 -27 -84 -71 -109 -97 l-45 -49 50 46 c28 25 75 65 105 89 71 56 75 60 68
60 -3 0 -34 -22 -69 -49z M4540 6345 c-7 -8 -16 -12 -21 -9 -5 3 -9 2 -8 -3 3
-20 -2 -25 -16 -13 -16 13 -20 3 -7 -17 6 -9 18 -3 42 22 19 19 31 35 28 35
-3 0 -11 -7 -18 -15z M5017 6326 c-43 -26 -63 -44 -30 -27 14 7 24 8 28 1 3
-5 11 -10 17 -10 6 0 8 3 5 7 -4 3 0 17 8 30 19 28 19 28 -28 -1z M6305 6300
c-4 -6 -1 -9 7 -8 7 2 12 -3 10 -10 -1 -8 2 -11 8 -7 14 9 9 -27 -5 -37 -6 -4
-2 -8 8 -8 9 0 17 6 17 13 0 8 3 7 9 -3 6 -8 8 -17 7 -20 -2 -3 6 -14 17 -25
16 -16 14 -9 -8 32 -33 61 -60 90 -70 73z M4465 6280 c-4 -6 -11 -7 -17 -4 -7
5 -8 2 -3 -6 6 -10 4 -12 -9 -7 -13 5 -17 3 -13 -7 3 -8 -7 -25 -26 -40 -17
-14 -26 -26 -21 -26 5 0 32 23 59 50 27 28 46 50 43 50 -4 0 -10 -5 -13 -10z
M8836 6189 c-20 -56 -34 -104 -32 -106 2 -2 20 42 40 98 20 56 35 104 33 106
-2 2 -20 -42 -41 -98z M5625 6183 c37 -38 51 -39 40 -2 -6 17 -9 19 -16 8 -5
-8 -9 -9 -9 -3 0 6 -11 16 -25 22 -23 11 -22 8 10 -25z M5352 6185 c-10 -12
-10 -15 0 -15 9 0 9 -3 -2 -10 -12 -7 -25 -50 -15 -50 4 0 55 79 55 85 0 11
-25 4 -38 -10z M6783 6131 c13 -28 25 -44 29 -38 4 7 4 14 -1 17 -4 3 -13 20
-20 38 -8 17 -17 32 -22 32 -4 0 2 -22 14 -49z M7693 6103 c37 -2 96 -2 130 0
34 2 4 3 -68 3 -71 0 -99 -1 -62 -3z M4704 6068 c-16 -18 -20 -25 -9 -17 11 9
26 14 33 12 7 -3 12 4 12 16 0 27 -1 27 -36 -11z M7422 6056 c-34 -12 -59 -26
-55 -29 6 -7 -12 -11 -30 -8 -5 1 -6 -3 -2 -9 3 -5 0 -10 -7 -11 -7 0 -29 -19
-48 -42 l-34 -42 39 36 c60 54 102 80 169 105 34 13 54 23 46 23 -8 0 -43 -11
-78 -23z M6812 6060 c0 -8 6 -31 13 -50 7 -19 13 -28 13 -20 0 8 -6 31 -13 50
-7 19 -13 28 -13 20z M8349 6051 c10 -7 8 -12 -10 -25 -13 -9 -18 -16 -12 -16
14 0 43 28 43 41 0 5 -8 9 -17 9 -14 0 -15 -2 -4 -9z M5681 5999 c-14 -40 -14
-39 2 -34 6 3 12 19 13 35 1 38 -1 38 -15 -1z M6444 5935 c0 -55 1 -76 3 -47
2 29 2 74 0 100 -2 26 -3 2 -3 -53z M5255 5988 c5 -13 2 -18 -11 -19 -11 0
-13 -3 -7 -6 10 -3 9 -11 -2 -33 -8 -16 -15 -33 -15 -37 1 -4 12 14 26 41 19
36 23 51 14 60 -8 8 -9 7 -5 -6z M9525 5953 c-13 -16 -47 -34 -90 -48 -79 -27
-76 -33 3 -10 29 9 68 30 88 47 27 24 38 28 44 18 4 -7 13 -9 19 -6 6 4 11 3
11 -2 0 -5 9 -19 20 -32 11 -13 20 -18 20 -11 0 7 -7 19 -15 28 -8 8 -13 18
-10 23 4 6 -44 21 -64 19 -3 0 -15 -12 -26 -26z M4207 5953 c10 -3 10 -10 -1
-31 -7 -15 -16 -38 -20 -52 -3 -14 5 -1 19 29 30 64 29 61 8 60 -11 0 -13 -3
-6 -6z M9610 5869 c-8 -15 -9 -19 -1 -15 20 13 11 -7 -16 -38 l-28 -31 32 29
c32 29 47 62 33 71 -5 3 -14 -4 -20 -16z M7693 5873 c20 -2 54 -2 75 0 20 2 3
4 -38 4 -41 0 -58 -2 -37 -4z M9225 5870 l-70 -6 72 -2 c39 -1 75 3 78 8 3 6
3 9 -2 8 -4 -1 -39 -4 -78 -8z M7545 5860 c-42 -11 -1 -11 50 -1 34 7 35 9 10
9 -16 0 -43 -4 -60 -8z M7201 5787 c-1 -31 35 -91 49 -82 5 3 15 -2 23 -10 18
-17 33 -19 42 -5 3 5 0 7 -8 4 -9 -3 -22 4 -30 16 -9 12 -20 19 -25 16 -14 -8
-33 18 -42 57 -8 32 -8 32 -9 4z M8332 5718 c-74 -199 -233 -753 -232 -810 0
-24 20 16 20 41 0 36 100 389 175 617 36 108 63 199 61 201 -2 3 -13 -20 -24
-49z M8675 5709 c-4 -6 -4 -13 0 -17 3 -3 9 -1 13 5 4 6 16 13 27 16 16 4 14
5 -7 6 -15 0 -30 -4 -33 -10z M9048 5673 c34 -2 88 -2 120 0 31 2 3 3 -63 3
-66 0 -92 -1 -57 -3z M4133 5605 c0 -38 2 -53 4 -32 2 20 2 52 0 70 -2 17 -4
1 -4 -38z M6490 5641 c-13 -32 -84 -158 -114 -203 -10 -16 -16 -28 -13 -28 20
0 157 244 144 256 -2 3 -10 -9 -17 -25z M6365 5601 c-3 -12 -11 -19 -16 -16
-5 3 -6 -1 -3 -9 3 -9 2 -16 -3 -16 -5 0 -10 -7 -10 -15 0 -8 2 -15 3 -15 7 0
45 82 41 87 -3 2 -8 -5 -12 -16z M8183 5592 c-18 -19 -20 -28 -12 -39 7 -7 14
-11 18 -8 3 3 -1 10 -9 15 -13 8 -13 10 1 10 9 0 19 10 22 22 8 30 6 30 -20 0z
M5182 5563 c-148 -417 -140 -393 -121 -393 6 0 9 7 5 15 -3 8 -1 15 5 15 6 0
9 6 6 14 -3 8 -2 16 2 18 10 4 125 348 118 354 -2 3 -9 -8 -15 -23z M5511
5523 c-12 -41 -7 -58 5 -21 4 13 8 25 9 28 0 3 4 11 8 18 5 6 4 12 -2 12 -6 0
-15 -17 -20 -37z M6663 5484 c-18 -30 -28 -54 -24 -54 9 0 65 99 59 105 -1 2
-17 -21 -35 -51z M6718 5448 c-26 -44 -40 -74 -32 -67 16 13 88 138 83 143 -2
2 -25 -32 -51 -76z M8144 5461 c3 -4 -3 -25 -14 -47 -12 -23 -16 -42 -11 -47
6 -6 14 7 21 32 6 23 14 49 17 57 3 8 0 14 -7 14 -6 0 -9 -4 -6 -9z M6254
5431 c5 -8 -23 -39 -31 -33 -1 1 -2 0 0 -1 1 -2 -5 -12 -13 -23 -8 -10 2 -4
23 15 31 29 40 51 21 51 -3 0 -3 -4 0 -9z M6610 5405 c-7 -8 -10 -15 -7 -15 3
0 -8 -15 -24 -32 -17 -18 -35 -42 -40 -53 -6 -11 10 3 34 30 25 28 43 52 41
54 -2 2 4 10 14 17 9 7 12 14 6 14 -6 0 -17 -7 -24 -15z M5004 5359 c-4 -7 -8
-28 -10 -48 -2 -32 -1 -33 7 -12 5 14 8 30 5 37 -3 7 0 15 7 17 7 2 9 7 6 11
-4 4 -10 2 -15 -5z M7570 5353 c14 -10 43 -34 65 -53 l40 -34 -32 35 c-18 19
-47 42 -65 52 -32 17 -32 17 -8 0z M6644 5303 c-21 -26 -33 -44 -26 -39 6 4
12 2 12 -3 0 -6 5 -11 12 -11 9 0 9 3 0 12 -8 8 -4 20 19 50 17 21 29 38 26
38 -3 0 -22 -21 -43 -47z M4193 5298 c12 -20 13 -28 4 -31 -6 -3 -2 -6 10 -6
12 -1 30 -11 40 -23 10 -13 27 -30 38 -38 15 -11 -63 79 -104 120 -3 3 3 -7
12 -22z M5386 5219 c-10 -28 -15 -53 -13 -55 2 -2 11 19 21 47 9 29 15 54 12
56 -2 2 -11 -19 -20 -48z M4605 5230 c3 -5 22 -17 41 -26 29 -14 34 -22 32
-43 -2 -15 -13 -31 -28 -38 -14 -7 -18 -13 -10 -13 8 1 23 7 33 14 21 17 24
76 2 76 -8 0 -12 6 -9 14 4 10 -2 12 -22 8 -19 -3 -25 -1 -20 7 4 6 1 11 -9
11 -9 0 -13 -4 -10 -10z M6860 5225 c-7 -8 -16 -12 -21 -9 -5 3 -8 0 -7 -8 2
-7 -2 -12 -9 -11 -15 3 -37 -24 -25 -31 5 -3 26 13 47 34 22 22 36 40 33 40
-3 0 -11 -7 -18 -15z M5281 5103 c-36 -116 -59 -204 -46 -177 11 22 94 298 90
302 -2 2 -21 -54 -44 -125z M7323 5198 c-86 -47 -245 -214 -270 -285 -9 -28
14 -3 36 38 10 19 25 34 32 34 8 0 13 8 11 18 -2 9 1 16 7 15 5 -2 35 27 65
65 35 41 64 67 76 67 11 0 20 6 20 13 0 14 60 47 86 47 20 0 47 -27 35 -34
-10 -6 -7 -41 7 -96 l8 -35 8 46 c4 29 2 60 -6 85 -11 33 -18 39 -43 42 -17 2
-48 -7 -72 -20z M6908 5143 c-56 -54 -129 -147 -157 -200 -23 -44 -2 -22 42
45 25 37 77 100 116 140 84 86 84 95 -1 15z M7699 5115 c-4 -69 -11 -104 -31
-147 -15 -32 -25 -58 -23 -58 6 0 47 80 53 100 7 27 14 145 10 170 -2 14 -6
-15 -9 -65z M5036 5138 c-3 -13 -14 -53 -25 -90 -11 -38 -16 -68 -12 -68 10 0
52 131 45 142 -3 4 0 8 5 8 6 0 11 7 11 15 0 23 -17 18 -24 -7z M6761 5123
c-28 -26 -41 -63 -15 -42 8 6 12 14 10 17 -3 2 5 13 17 22 12 10 20 20 17 22
-3 2 -16 -6 -29 -19z M5338 5075 c-35 -113 -45 -155 -38 -150 5 3 12 21 16 40
3 20 11 38 17 42 6 4 8 0 4 -10 -3 -8 -9 -32 -13 -51 -6 -35 -5 -36 22 -35 28
0 28 1 6 9 -24 10 -24 22 5 104 7 22 11 41 8 44 -3 3 -5 -1 -6 -9 -1 -8 -4 -3
-8 11 -7 23 -8 23 -13 5z M6372 5055 c-46 -32 -52 -40 -15 -21 17 9 35 21 39
27 4 8 9 7 15 -2 6 -10 9 -10 9 -2 0 22 -15 21 -48 -2z M5780 5056 c-14 -8
-28 -12 -32 -10 -5 3 -8 0 -8 -5 0 -6 3 -11 8 -11 12 1 78 39 67 39 -5 0 -21
-6 -35 -13z M7046 5013 c-36 -49 -111 -183 -103 -183 3 0 26 37 52 83 26 45
58 97 72 115 13 17 22 32 19 32 -3 0 -21 -21 -40 -47z M5680 5015 c-14 -8 -35
-14 -48 -15 -13 0 -20 -4 -17 -10 3 -5 -2 -10 -11 -10 -10 0 -15 -3 -11 -6 8
-8 117 37 117 48 0 10 0 10 -30 -7z M4890 4957 c0 -15 -29 -23 -62 -18 -4 0
-4 -7 -1 -16 4 -11 8 -13 11 -5 2 7 15 12 28 12 24 0 43 24 30 37 -3 4 -6 -1
-6 -10z M6178 4939 c-32 -16 -58 -32 -58 -34 0 -3 27 8 60 25 33 17 60 32 60
35 0 7 2 8 -62 -26z M6637 4936 c-9 -13 -22 -30 -30 -37 -8 -8 -11 -22 -8 -31
4 -12 14 -1 33 38 28 58 30 69 5 30z M7341 4911 c-8 -5 -10 -14 -6 -21 5 -8 4
-11 -3 -6 -13 8 -44 -22 -37 -35 3 -5 21 5 40 23 19 17 32 35 29 39 -6 11 -6
11 -23 0z M9127 4904 c2 -7 10 -11 17 -8 7 3 28 -9 46 -26 32 -30 34 -41 16
-95 -4 -11 0 -7 9 8 20 34 14 66 -18 100 -25 27 -79 43 -70 21z M4830 4893 c0
-6 5 -15 10 -18 6 -4 9 -14 8 -22 -2 -9 3 -18 10 -20 17 -7 15 7 -8 42 -11 17
-20 25 -20 18z M6017 4861 c-48 -22 -102 -43 -118 -46 -17 -4 -28 -9 -26 -12
3 -2 21 0 41 5 25 7 36 7 40 -1 2 -7 5 -5 5 4 1 9 16 22 34 29 17 7 47 20 65
28 29 13 35 13 42 1 7 -10 9 -8 7 9 0 12 -1 22 -2 22 0 0 -40 -18 -88 -39z
M8000 4881 c0 -13 -4 -19 -10 -16 -7 4 -8 -3 -4 -22 10 -39 11 -39 18 8 4 23
4 44 1 47 -3 3 -5 -5 -5 -17z M7586 4828 c-9 -13 -46 -54 -83 -93 -38 -38 -56
-59 -42 -47 14 12 29 19 33 15 4 -5 6 -1 4 7 -1 8 6 19 18 24 11 5 25 19 30
30 5 12 15 20 22 19 7 -2 11 0 11 5 -3 20 3 23 19 11 15 -13 16 -12 3 4 -11
14 -11 20 -1 32 7 8 10 15 7 15 -3 0 -13 -10 -21 -22z M7286 4829 c4 -8 -1 -9
-17 -4 -20 7 -22 6 -12 -7 7 -8 9 -19 5 -24 -4 -5 3 0 15 10 19 16 23 36 7 36
-3 0 -2 -5 2 -11z M4937 4763 c-2 -4 -7 -26 -10 -48 l-6 -40 14 44 c13 40 14
65 2 44z M5565 4730 c-11 -5 -32 -9 -47 -9 -20 -1 -28 -6 -28 -18 0 -14 2 -15
9 -4 5 7 15 11 22 9 8 -3 23 -1 34 5 11 6 36 14 55 18 34 6 34 7 5 7 -16 0
-39 -3 -50 -8z M6978 4670 c-13 -40 -13 -50 -3 -50 9 0 11 8 7 22 -3 12 -1 19
4 15 6 -3 16 -1 24 5 12 8 11 9 -3 4 -16 -5 -18 -2 -12 24 10 47 1 35 -17 -20z
M5250 4681 c-5 -11 -10 -26 -9 -33 0 -7 5 -1 10 14 10 25 16 27 72 31 l62 3
-62 2 c-53 2 -64 -1 -73 -17z M6513 4583 l-1 -68 8 55 c5 30 5 61 1 68 -4 7
-8 -18 -8 -55z M4887 4555 c-10 -43 -16 -80 -13 -82 6 -6 38 135 34 148 -2 7
-12 -23 -21 -66z M7860 4600 c-14 -11 -21 -20 -16 -20 4 0 1 -11 -8 -25 -29
-44 -8 -27 24 20 35 51 35 52 0 25z M9021 4440 c-17 -27 -25 -47 -18 -44 11 5
61 94 52 94 -2 0 -17 -22 -34 -50z M8809 4468 c-1 -4 -2 -13 -3 -18 0 -6 -5
-14 -11 -18 -5 -4 -16 -18 -23 -32 -9 -18 -5 -15 17 10 16 19 28 37 25 39 -2
2 4 9 12 16 15 11 15 12 0 12 -9 0 -17 -4 -17 -9z M6924 4457 c-3 -8 -3 -54
-1 -103 l3 -89 2 97 c2 82 5 97 20 101 16 4 16 5 -1 6 -10 0 -20 -5 -23 -12z
M6503 4385 c0 -44 2 -61 4 -37 2 23 2 59 0 80 -2 20 -4 1 -4 -43z M7711 4398
c-18 -18 -40 -33 -48 -34 -22 -4 -26 -11 -10 -17 9 -3 32 13 58 39 49 50 50
60 0 12z M7943 4365 c0 -27 2 -38 4 -22 2 15 2 37 0 50 -2 12 -4 0 -4 -28z
M8320 4270 c0 -35 2 -61 4 -59 8 8 10 108 3 116 -4 3 -7 -22 -7 -57z M7848
4293 c-24 -25 -25 -30 -12 -47 8 -11 14 -15 14 -9 0 7 -5 15 -11 19 -7 4 0 17
17 35 15 16 25 29 23 29 -3 0 -17 -12 -31 -27z M8685 4280 c-4 -6 -11 -7 -17
-4 -7 4 -8 2 -4 -4 4 -7 1 -12 -9 -12 -9 0 -13 -4 -10 -10 3 -5 2 -10 -4 -10
-5 0 -11 6 -14 13 -2 6 -7 -3 -11 -20 -7 -29 -19 -38 -48 -34 -3 0 -5 -7 -3
-17 1 -9 -2 -23 -8 -29 -24 -32 5 -7 73 62 41 41 72 75 68 75 -4 0 -10 -5 -13
-10z M7575 4260 c-4 -6 -11 -8 -16 -4 -5 3 -8 0 -7 -8 2 -7 -3 -12 -9 -11 -7
2 -20 -8 -29 -22 -9 -14 -21 -22 -28 -18 -6 3 -8 3 -4 -2 4 -4 -3 -16 -15 -27
-17 -15 -15 -15 11 2 19 13 36 29 39 36 3 8 8 12 13 9 4 -2 20 9 35 25 16 17
26 30 22 30 -3 0 -9 -5 -12 -10z M6931 4240 c-1 -24 33 -92 64 -128 28 -33 65
-59 65 -45 0 5 -10 13 -22 18 -22 9 -89 98 -86 113 1 4 -4 18 -10 32 -6 14
-11 18 -11 10z M7674 4118 c-16 -18 -20 -26 -10 -18 11 8 27 14 37 12 11 -2
17 3 15 12 -4 28 -12 26 -42 -6z M4713 4090 c0 -30 2 -43 4 -27 2 15 2 39 0
55 -2 15 -4 2 -4 -28z M7345 4109 c-4 -11 -11 -19 -17 -19 -6 0 -9 -3 -6 -6 5
-4 88 32 88 39 0 1 -13 2 -30 3 -21 1 -31 -4 -35 -17z M8755 4078 c-50 -53
-50 -53 -4 -10 25 23 48 39 52 36 4 -4 7 0 7 9 0 10 -1 17 -3 17 -1 0 -25 -24
-52 -52z M7987 4106 c-4 -10 -3 -15 3 -11 6 3 10 2 10 -3 0 -5 11 -25 24 -45
17 -25 21 -38 13 -46 -8 -8 -8 -11 1 -11 7 0 12 6 12 13 0 6 16 -5 35 -25 19
-21 35 -35 35 -32 0 3 10 -2 22 -10 12 -9 27 -16 32 -16 5 0 -9 12 -30 26 -61
41 -104 85 -128 133 -18 34 -24 40 -29 27z M8470 4095 c-14 -8 -36 -15 -50
-16 -23 -2 -23 -2 -3 -6 20 -4 83 21 83 32 0 7 -2 6 -30 -10z M6600 4048 c0
-19 2 -20 10 -8 9 13 10 13 11 0 1 -8 0 -19 -1 -25 -1 -5 2 -7 6 -2 4 4 16 -1
28 -10 11 -10 5 1 -14 25 -18 23 -35 42 -37 42 -2 0 -3 -10 -3 -22z M4703
3960 c0 -41 2 -58 4 -37 2 20 2 54 0 75 -2 20 -4 3 -4 -38z M6702 3964 c9 -10
32 -28 50 -38 39 -22 29 -11 -27 29 -23 17 -33 21 -23 9z M8555 3924 c-33 -18
-57 -34 -53 -34 14 0 118 54 118 62 0 4 -1 7 -2 7 -2 -1 -30 -16 -63 -35z
M2403 3933 c26 -2 68 -2 95 0 26 2 4 3 -48 3 -52 0 -74 -1 -47 -3z M2588 3933
c18 -2 45 -2 60 0 15 2 0 4 -33 4 -33 0 -45 -2 -27 -4z M2085 3890 c-7 -11 9
-11 45 0 24 8 24 8 -7 9 -17 1 -35 -3 -38 -9z M9408 3884 c-16 -8 -28 -12 -28
-9 0 4 -7 -1 -16 -9 -8 -9 -20 -13 -26 -10 -7 4 -8 2 -4 -4 4 -7 1 -12 -6 -13
-7 0 -31 -22 -53 -47 l-40 -47 51 47 c50 45 113 83 164 99 20 6 21 7 5 8 -11
0 -32 -7 -47 -15z M9626 3861 c17 -10 40 -32 52 -47 12 -16 21 -22 20 -14 -5
23 -70 80 -92 80 -6 0 3 -9 20 -19z M7058 3833 c23 -2 59 -2 80 0 20 2 1 4
-43 4 -44 0 -61 -2 -37 -4z M10667 3791 c-20 -10 -34 -21 -30 -24 3 -4 1 -7
-5 -7 -11 0 -62 -46 -62 -56 0 -3 21 13 48 34 26 22 61 47 77 55 41 22 19 20
-28 -2z M10946 3785 c18 -8 44 -29 59 -47 15 -18 22 -24 17 -13 -17 35 -64 75
-86 74 -17 0 -15 -3 10 -14z M4776 3779 c3 -5 13 -9 23 -9 10 0 24 -7 31 -15
7 -8 17 -15 23 -15 5 0 -1 8 -14 18 -26 21 -72 36 -63 21z M4977 3744 c-33
-28 -40 -29 -61 -9 -19 19 -21 19 -23 -4 -1 -13 3 -18 12 -15 7 3 23 0 35 -6
15 -8 20 -8 16 -1 -4 6 0 11 8 11 9 0 16 4 16 8 0 4 10 8 21 9 12 1 27 7 33
14 8 9 8 10 -3 4 -7 -4 -16 -3 -20 3 -4 6 -17 1 -34 -14z M2497 3753 c-3 -5
16 -7 41 -5 80 5 90 9 25 11 -34 0 -64 -2 -66 -6z M9505 3678 l-40 -43 41 38
c39 36 43 38 53 20 11 -17 12 -17 9 1 -5 33 -22 28 -63 -16z M9724 3635 c0
-49 1 -71 3 -48 2 23 2 64 0 90 -2 26 -3 8 -3 -42z M3325 3632 c38 -40 71 -72
74 -72 2 0 -5 10 -16 23 -11 12 -19 28 -17 35 1 7 0 8 -3 1 -3 -6 -19 2 -39
22 -18 18 -30 37 -27 43 3 6 3 8 -2 4 -4 -4 -15 -3 -24 4 -9 7 15 -21 54 -60z
M11031 3698 c-1 -4 4 -19 10 -35 7 -15 15 -57 19 -93 l7 -65 1 60 c0 39 -6 74
-18 100 -10 22 -19 37 -19 33z M9166 3668 c3 -4 0 -8 -5 -8 -6 0 -10 -6 -8
-12 1 -7 -4 -12 -11 -10 -8 1 -11 -2 -7 -8 3 -5 1 -19 -5 -30 -20 -38 -3 -20
27 28 19 32 25 49 17 49 -7 0 -11 -4 -8 -9z M7195 3651 c-3 -6 -15 -11 -26
-11 -10 0 -18 -6 -16 -12 1 -7 -5 -11 -13 -10 -8 2 -12 0 -8 -4 4 -4 2 -14 -5
-23 -6 -9 4 -2 25 15 20 18 42 34 50 36 7 3 10 8 7 12 -4 4 -10 3 -14 -3z
M7225 3640 c3 -11 -1 -31 -11 -47 -17 -28 -17 -28 9 2 28 33 33 45 16 45 -5 0
-7 5 -4 10 3 6 1 10 -5 10 -7 0 -9 -8 -5 -20z M1515 3615 c-22 -19 -46 -34
-54 -35 -8 0 -12 -3 -8 -6 7 -8 -46 -54 -63 -54 -6 0 -8 -4 -5 -10 3 -5 1 -10
-6 -10 -7 0 -9 -3 -6 -6 5 -6 90 62 172 138 34 32 11 19 -30 -17z M7265 3641
c-3 -7 0 -8 9 -5 11 4 16 0 16 -11 0 -9 5 -13 11 -10 14 10 49 -24 42 -41 -3
-8 0 -14 6 -14 12 0 14 20 5 44 -3 9 -10 13 -15 10 -5 -3 -9 -1 -9 4 0 5 -8
12 -17 16 -10 3 -23 8 -30 12 -6 3 -14 0 -18 -5z M10844 3635 c-18 -13 -18
-14 8 -9 31 5 35 -5 41 -91 l3 -50 2 57 c2 57 -10 108 -26 108 -4 0 -17 -7
-28 -15z M1945 3595 c-81 -47 -127 -81 -67 -51 18 9 37 14 42 11 5 -3 11 4 15
15 6 18 12 22 31 19 4 0 10 4 13 9 3 5 20 16 36 25 17 9 25 16 20 17 -6 0 -46
-20 -90 -45z M9433 3588 c-32 -51 -126 -248 -121 -254 2 -2 26 41 52 96 36 76
52 100 67 100 10 0 19 5 19 11 0 6 -7 9 -15 5 -20 -7 -19 -2 10 44 14 22 23
40 20 40 -2 0 -17 -19 -32 -42z M9213 3598 c-27 -35 -99 -170 -149 -280 -59
-130 -162 -426 -215 -618 -34 -124 -99 -432 -93 -439 7 -8 10 2 42 166 35 178
127 495 199 692 26 69 88 208 138 309 50 100 90 182 89 182 -1 0 -6 -6 -11
-12z M3046 3590 c4 -8 23 -35 41 -61 24 -34 31 -53 28 -77 -2 -18 0 -32 5 -32
6 0 10 8 10 18 1 13 4 11 15 -8 8 -14 14 -20 15 -14 0 12 -65 120 -98 160 -13
16 -20 22 -16 14z M7375 3550 c0 -30 10 -40 18 -17 5 15 -3 47 -12 47 -3 0 -6
-13 -6 -30z M1510 3505 c-24 -25 -42 -45 -39 -45 3 0 25 20 49 45 24 25 42 45
39 45 -3 0 -25 -20 -49 -45z M9550 3506 c0 -9 -7 -19 -15 -22 -19 -8 -20 -24
-1 -24 14 0 32 48 21 58 -3 3 -5 -2 -5 -12z M1725 3436 c-58 -54 -67 -66 -52
-71 10 -4 21 -5 24 -1 4 3 1 6 -5 6 -7 0 -12 5 -12 11 0 5 5 7 10 4 6 -4 9 -1
8 7 -2 7 3 12 10 11 6 -2 11 0 10 5 -2 4 17 26 42 49 25 23 43 42 40 42 -3 0
-36 -28 -75 -63z M2284 3485 c-12 -8 -25 -11 -29 -7 -3 4 -5 0 -3 -8 2 -10 -3
-14 -14 -12 -13 2 -18 -4 -18 -19 0 -19 4 -18 41 15 41 38 87 47 81 16 -3 -11
-1 -12 8 -3 30 29 -28 45 -66 18z M3467 3435 c15 -30 29 -53 31 -51 4 5 -46
106 -53 106 -3 0 7 -25 22 -55z M2458 3445 c19 -26 54 -29 50 -6 -2 8 -17 18
-35 22 -32 6 -32 6 -15 -16z M10451 3395 c-70 -126 -157 -349 -221 -565 -48
-160 -52 -180 -41 -180 4 0 11 15 15 33 29 151 158 510 247 690 27 53 47 97
45 97 -2 0 -23 -34 -45 -75z M10691 3386 c-23 -48 -40 -90 -38 -92 2 -2 12 14
22 36 10 22 22 40 27 40 5 0 7 4 3 9 -3 5 2 16 11 25 8 9 13 20 10 25 -4 5 -1
11 5 13 7 2 10 11 7 19 -3 8 -23 -25 -47 -75z M7353 3408 c4 -10 2 -18 -3 -18
-6 0 -10 -4 -10 -10 0 -13 27 -13 36 1 3 6 -2 18 -11 27 -17 16 -17 16 -12 0z
M1278 3365 c-21 -29 -37 -44 -47 -40 -11 4 -11 2 -3 -8 7 -8 10 -17 7 -21 -3
-3 -1 -3 3 1 15 14 82 113 77 113 -3 0 -20 -20 -37 -45z M8257 3403 c-4 -3 -7
-14 -7 -24 0 -26 19 -73 27 -65 3 3 1 17 -7 30 -7 14 -10 34 -7 45 5 22 4 25
-6 14z M8317 3390 c12 -14 29 -41 38 -60 15 -34 16 -34 10 -5 -4 17 -7 37 -8
46 -1 10 -7 15 -16 11 -10 -4 -12 -1 -6 9 4 8 5 11 0 7 -4 -4 -15 -2 -24 4 -9
7 -6 1 6 -12z M10369 3393 c-8 -10 -15 -20 -16 -23 -10 -32 -26 -66 -35 -71
-6 -4 -6 -9 -1 -12 5 -3 24 23 41 59 18 35 31 64 29 64 -1 0 -9 -8 -18 -17z
M10866 3383 c-4 -18 -12 -33 -16 -33 -5 0 -6 -8 -3 -17 5 -12 10 -7 20 22 7
22 12 44 10 49 -2 6 -7 -4 -11 -21z M5203 3330 c16 -5 35 -14 43 -21 8 -6 14
-7 14 -2 0 12 -45 33 -68 32 -9 0 -4 -5 11 -9z M9295 3301 c-3 -12 -10 -19
-15 -16 -4 3 -6 -5 -3 -17 4 -19 3 -21 -7 -8 -10 13 -11 12 -6 -3 3 -10 -1
-31 -9 -47 -8 -16 -15 -35 -15 -42 0 -7 9 6 19 29 11 23 27 58 36 78 10 19 15
38 12 41 -3 3 -8 -4 -12 -15z M10998 3238 c-15 -45 -26 -84 -24 -86 2 -2 10
14 16 35 7 21 16 40 20 43 7 5 23 90 18 90 -2 0 -15 -37 -30 -82z M9622 3265
c-12 -25 -20 -45 -17 -45 7 0 47 81 43 86 -3 2 -14 -17 -26 -41z M1577 3268
c-26 -35 -67 -112 -67 -125 0 -4 16 21 35 56 19 35 42 72 51 82 9 11 14 19 11
19 -3 0 -17 -15 -30 -32z M6213 3293 c15 -2 39 -2 55 0 15 2 2 4 -28 4 -30 0
-43 -2 -27 -4z M8245 3289 c4 -6 0 -9 -10 -7 -13 2 -19 -4 -20 -20 -2 -22 -1
-22 27 5 33 31 33 33 12 33 -8 0 -12 -5 -9 -11z M6073 3283 c15 -2 37 -2 50 0
12 2 0 4 -28 4 -27 0 -38 -2 -22 -4z M6944 3262 c10 -17 -15 -40 -50 -44 -27
-3 -27 -4 8 -9 20 -3 34 -1 32 3 -3 4 -1 8 4 8 16 0 24 32 11 44 -9 8 -10 8
-5 -2z M4742 3237 c-12 -13 -22 -27 -22 -31 0 -5 9 3 21 18 29 37 70 35 103
-5 14 -17 26 -40 26 -52 0 -13 3 -17 8 -11 12 18 39 23 52 11 8 -7 4 1 -8 17
-12 16 -22 35 -22 42 0 8 -7 14 -16 14 -9 0 -12 5 -8 13 4 6 -2 4 -13 -6 -18
-16 -22 -16 -33 -2 -19 22 -63 18 -88 -8z M5830 3230 c-8 -5 -33 -10 -55 -11
-35 -1 -37 -2 -15 -9 17 -5 19 -8 8 -9 -10 -1 -18 -5 -18 -11 0 -5 -5 -10 -11
-10 -11 0 -98 -90 -99 -102 0 -4 20 15 45 41 25 27 76 65 113 85 37 19 63 35
57 36 -5 0 -17 -5 -25 -10z M3544 3135 c0 -49 1 -71 3 -48 2 23 2 64 0 90 -2
26 -3 8 -3 -42z M7274 3170 c1 -10 13 -15 36 -16 34 -2 34 -1 3 3 -17 2 -34
10 -36 16 -2 7 -3 5 -3 -3z M1161 3139 c-6 -18 -11 -39 -10 -48 0 -9 7 4 14
29 16 51 13 67 -4 19z M9382 3143 c-6 -2 -10 -9 -6 -14 3 -5 -2 -9 -11 -9 -11
0 -15 -5 -11 -15 3 -9 0 -15 -9 -15 -8 0 -15 -4 -15 -10 0 -27 31 1 64 58 8
13 7 13 -12 5z M2061 3127 c-6 -8 -8 -17 -4 -21 4 -4 0 -4 -10 0 -10 3 -17 1
-17 -5 0 -6 4 -11 10 -11 5 0 7 -8 3 -17 -11 -32 6 -8 22 30 16 39 15 46 -4
24z M6113 3123 c37 -2 97 -2 135 0 37 2 6 3 -68 3 -74 0 -105 -1 -67 -3z
M8878 3065 c-22 -29 -22 -35 -4 -35 7 0 16 12 19 28 7 34 6 35 -15 7z M8220
3057 c-19 -12 -75 -36 -125 -54 -73 -26 -83 -32 -52 -31 20 1 37 6 37 11 0 4
5 5 11 2 14 -9 61 3 54 15 -5 8 10 16 40 22 6 1 15 6 20 10 6 4 21 17 35 28
32 25 24 24 -20 -3z M10887 2975 c-26 -52 -45 -95 -42 -95 7 0 97 181 93 186
-2 2 -25 -39 -51 -91z M5081 3034 c12 -13 23 -24 24 -24 4 0 0 40 -5 41 -3 0
-13 2 -24 4 -16 3 -15 1 5 -21z M9471 3013 c-25 -36 -26 -41 -6 -18 26 30 49
65 42 65 -2 0 -18 -21 -36 -47z M5622 3007 c-1 -23 4 -45 13 -54 14 -13 18
-13 40 1 29 19 34 32 6 14 -26 -16 -49 3 -54 45 -4 30 -4 30 -5 -6z M12130
3027 c-14 -6 -38 -25 -55 -41 -16 -16 -21 -23 -10 -14 11 9 40 28 65 42 46 26
46 34 0 13z M12363 3020 c21 -11 47 -35 57 -53 11 -18 20 -28 20 -23 0 17 -44
75 -60 79 -8 3 -24 8 -35 11 -11 4 -3 -2 18 -14z M3145 3006 c-6 -6 -11 -22
-12 -36 -1 -22 1 -21 14 9 15 36 14 46 -2 27z M2370 2904 c-17 -53 -29 -98
-27 -100 2 -3 15 29 28 71 12 41 25 75 28 75 3 0 7 11 7 25 1 14 0 25 -1 25
-2 0 -18 -43 -35 -96z M7206 2974 c-10 -25 -7 -29 7 -12 6 9 23 19 37 21 21 4
21 4 -6 6 -21 1 -34 -5 -38 -15z M6882 2842 c-48 -148 -140 -489 -147 -547 -3
-22 16 43 43 145 27 102 72 261 101 353 29 93 51 170 49 173 -2 2 -23 -54 -46
-124z M3202 2917 c-11 -23 -33 -62 -47 -87 -22 -37 -23 -41 -5 -20 24 27 84
140 78 146 -3 2 -14 -15 -26 -39z M7720 2950 l-125 -6 133 -1 c72 -1 132 3
132 8 0 5 -3 8 -7 7 -5 -1 -64 -5 -133 -8z M1123 2880 c0 -36 2 -50 4 -32 2
17 2 47 0 65 -2 17 -4 3 -4 -33z M9152 2900 c-15 -58 -1 -74 34 -38 19 19 23
28 13 33 -7 5 -10 4 -6 -2 4 -6 1 -16 -7 -22 -11 -9 -15 -8 -20 5 -9 23 -7 36
3 30 5 -3 12 1 15 10 3 8 2 13 -3 9 -5 -3 -11 0 -13 7 -3 7 -10 -8 -16 -32z
M1443 2855 c0 -27 2 -38 4 -22 2 15 2 37 0 50 -2 12 -4 0 -4 -28z M5167 2848
c6 -73 11 -83 12 -23 0 28 -3 56 -8 63 -5 8 -6 -8 -4 -40z M2042 2838 c-52
-140 -156 -487 -149 -494 3 -3 22 48 42 113 20 65 58 188 85 273 48 153 60
210 22 108z M11972 2878 c-7 -7 -12 -18 -12 -25 0 -6 -7 -16 -16 -21 -14 -8
-14 -13 -5 -28 11 -16 12 -16 7 -1 -3 9 -2 17 2 17 5 0 16 16 25 35 18 38 18
42 -1 23z M3465 2816 c-19 -39 -25 -63 -18 -63 7 0 10 4 8 7 -3 4 4 19 15 32
11 14 16 29 12 33 -4 5 1 5 11 2 13 -5 16 -3 10 6 -4 6 -6 20 -5 30 5 28 -1
19 -33 -47z M3833 2847 c-26 -28 -46 -67 -39 -75 3 -3 6 -1 6 4 0 5 10 25 21
44 l21 34 14 -24 14 -25 -6 30 c-9 39 -7 38 -31 12z M10821 2847 c-8 -12 -21
-32 -29 -44 -8 -13 -12 -23 -9 -23 7 0 59 81 55 85 -2 2 -10 -6 -17 -18z
M9307 2812 c-26 -27 -44 -51 -41 -55 10 -9 34 12 34 30 0 8 5 11 10 8 6 -3 10
-1 10 6 0 7 10 23 22 36 41 43 12 23 -35 -25z M3543 2812 c-12 -16 -18 -34
-14 -41 5 -7 14 3 24 29 8 22 14 40 13 40 -1 0 -12 -13 -23 -28z M3380 2823
c0 -5 -25 -43 -55 -83 -60 -80 -72 -104 -25 -50 44 52 93 130 86 137 -3 4 -6
2 -6 -4z M10141 2784 c-7 -25 -10 -48 -8 -51 3 -2 10 17 16 43 7 25 10 48 8
51 -3 2 -10 -17 -16 -43z M4853 2803 c20 -2 54 -2 75 0 20 2 3 4 -38 4 -41 0
-58 -2 -37 -4z M10594 2765 c-4 -8 -10 -12 -15 -9 -5 3 -9 2 -8 -3 4 -22 -3
-34 -28 -47 -16 -8 -22 -15 -15 -16 7 0 10 -6 6 -12 -3 -7 5 1 19 17 30 36 60
85 52 85 -3 0 -8 -7 -11 -15z M2299 2685 c-16 -52 -25 -71 -29 -59 -5 13 -10
6 -17 -24 -7 -29 -8 -40 0 -35 6 4 8 -4 4 -23 -6 -27 -5 -26 10 6 9 19 17 42
18 50 2 8 12 46 25 83 12 38 19 71 17 73 -2 3 -15 -30 -28 -71z M2914 2662
c-55 -53 -114 -104 -130 -112 -16 -8 -38 -24 -49 -34 -20 -19 -20 -19 10 -2
59 36 131 96 205 170 41 42 72 76 70 76 -3 -1 -50 -45 -106 -98z M12186 2705
c3 -33 8 -62 10 -64 10 -10 9 8 -3 64 l-12 60 5 -60z M3782 2693 c-2 -54 0
-63 16 -63 11 0 13 3 5 8 -6 4 -13 32 -16 62 l-3 55 -2 -62z M12235 2730 c3
-5 -2 -10 -12 -10 -15 0 -16 -2 -3 -10 10 -6 11 -10 3 -10 -7 0 -13 -4 -13
-10 0 -19 17 -10 28 15 15 32 15 35 1 35 -5 0 -7 -4 -4 -10z M10112 2668 c-7
-28 -11 -53 -8 -55 2 -2 9 19 16 47 7 28 10 53 8 55 -3 3 -10 -18 -16 -47z
M7903 2693 c20 -2 54 -2 75 0 20 2 3 4 -38 4 -41 0 -58 -2 -37 -4z M10688
2634 c-27 -35 -43 -66 -38 -69 6 -3 10 1 10 10 0 9 5 13 10 10 6 -4 10 -3 9 2
-3 20 2 34 11 28 6 -3 10 0 10 8 0 8 10 26 21 41 12 15 20 29 18 30 -2 2 -25
-25 -51 -60z M11271 2691 c-8 -5 13 -7 55 -4 93 6 103 11 24 12 -36 0 -71 -3
-79 -8z M1164 2677 c3 -10 6 -28 6 -39 0 -11 5 -18 13 -15 17 6 113 -82 109
-102 -2 -13 -1 -14 7 -2 7 10 13 12 23 5 22 -18 107 -46 121 -41 7 3 5 6 -5 6
-32 2 -131 51 -176 88 -24 20 -58 54 -75 77 -16 23 -27 33 -23 23z M6143 2683
c15 -2 37 -2 50 0 12 2 0 4 -28 4 -27 0 -38 -2 -22 -4z M5525 2670 c-2 -3 8
-7 23 -8 36 -3 112 -39 112 -54 0 -6 3 -8 7 -4 9 9 -45 59 -57 51 -5 -3 -12 0
-17 7 -8 13 -61 19 -68 8z M6053 2667 c-18 -6 -33 -15 -33 -19 0 -4 -7 -8 -16
-8 -8 0 -12 -4 -9 -10 3 -5 2 -10 -3 -10 -5 0 -38 -29 -74 -65 -35 -36 -63
-65 -60 -65 3 0 38 31 78 70 40 38 95 80 121 94 51 26 49 30 -4 13z M8309
2667 c-8 -7 -24 -25 -34 -42 -20 -31 -18 -30 29 23 31 33 33 40 5 19z M9600
2673 c1 -5 18 -18 38 -31 l37 -23 -32 30 c-32 31 -43 37 -43 24z M10508 2668
c10 -12 10 -17 1 -20 -7 -2 -13 -12 -15 -21 -3 -23 1 -21 19 7 15 22 15 25 -1
38 -15 12 -16 11 -4 -4z M5475 2660 c-4 -6 -11 -8 -16 -4 -5 3 -8 0 -7 -8 2
-8 -5 -12 -17 -10 -15 2 -16 0 -7 -6 11 -8 11 -11 0 -23 -7 -8 -14 -23 -16
-34 -1 -12 6 -5 18 17 11 20 32 46 46 57 15 12 22 21 16 21 -6 0 -14 -5 -17
-10z M8220 2655 c-7 -8 -21 -15 -31 -15 -11 0 -19 -4 -19 -10 0 -5 -5 -10 -11
-10 -5 0 -8 4 -5 8 3 5 -1 9 -9 9 -10 0 -8 -8 8 -27 22 -27 43 -30 33 -4 -3 7
0 16 6 20 7 4 8 3 4 -4 -14 -24 1 -11 22 18 23 31 24 42 2 15z M1524 2623 c34
-37 56 -47 56 -26 0 4 -3 3 -7 0 -9 -9 -42 22 -39 36 2 7 1 8 -2 4 -2 -5 -14
0 -26 10 -11 9 -3 -1 18 -24z M6329 2613 c22 -24 43 -59 47 -76 4 -18 9 -26
11 -19 3 7 -4 30 -15 51 -12 22 -18 42 -14 46 4 4 0 5 -8 3 -8 -1 -14 2 -13 7
1 6 -9 15 -23 22 -20 9 -17 3 15 -34z M11545 2643 c17 -8 48 -32 70 -52 22
-20 30 -24 17 -10 -12 14 -19 29 -15 32 3 4 -1 7 -11 7 -9 0 -14 5 -11 10 3 6
-3 10 -14 10 -12 0 -21 4 -21 8 0 4 -10 8 -22 9 -20 2 -19 0 7 -14z M4857
2633 c-15 -14 -6 -25 15 -20 14 4 29 0 40 -10 10 -9 21 -13 25 -10 3 4 1 7 -6
7 -7 0 -10 3 -7 8 2 4 -7 12 -20 19 -13 6 -24 7 -24 2 0 -5 -5 -9 -11 -9 -5 0
-7 5 -4 10 7 11 2 13 -8 3z M9259 2633 c-4 -34 -6 -38 -17 -35 -7 1 -11 -4 -9
-10 1 -7 -5 -11 -13 -10 -8 2 -12 0 -7 -4 4 -4 -3 -19 -15 -33 -12 -14 5 1 39
33 35 33 60 62 56 65 -3 3 -8 0 -11 -8 -4 -11 -6 -11 -13 0 -7 11 -9 11 -10 2z
M10177 2633 c-8 -13 -29 -124 -24 -129 2 -2 11 26 21 62 14 61 16 89 3 67z
M4970 2590 c0 -6 7 -10 15 -10 9 0 20 -11 25 -25 11 -29 20 -33 15 -7 -2 9 -4
20 -4 23 -2 11 -51 29 -51 19z M7635 2580 c-4 -6 -10 -8 -15 -5 -10 6 -71 -56
-64 -67 3 -4 -2 -8 -11 -8 -9 0 -14 -4 -11 -9 4 -5 1 -11 -6 -13 -6 -2 -12
-12 -14 -22 -1 -10 -2 -16 0 -14 1 1 33 36 71 76 37 39 66 72 62 72 -3 0 -9
-5 -12 -10z M10410 2539 c0 -8 -3 -25 -7 -39 -3 -14 -3 -23 0 -20 3 3 6 9 6
13 0 4 8 16 18 25 11 9 17 16 14 15 -2 -2 -10 2 -18 8 -10 9 -13 8 -13 -2z
M10990 2535 c-7 -8 -19 -15 -27 -15 -8 0 -11 -4 -8 -10 3 -5 -1 -10 -10 -10
-9 0 -13 -4 -10 -10 3 -5 -1 -10 -9 -10 -8 0 -18 -5 -22 -12 -4 -7 -3 -8 4 -4
19 11 14 -5 -5 -21 -10 -8 -13 -13 -7 -11 12 3 120 118 111 118 -2 0 -10 -7
-17 -15z M1611 2518 c-9 -15 -9 -19 -1 -11 7 6 19 9 28 6 9 -4 13 -1 10 7 -7
23 -22 21 -37 -2z M2151 2469 c-12 -39 -21 -72 -19 -75 2 -2 14 28 27 67 12
39 21 72 19 75 -2 2 -14 -28 -27 -67z M7938 2524 c-16 -8 -28 -17 -28 -20 0
-2 10 1 23 7 12 7 36 16 52 20 27 6 28 7 5 8 -14 0 -37 -7 -52 -15z M9451
2523 c0 -13 2 -14 6 -4 4 9 7 10 13 2 3 -7 14 -9 24 -5 14 5 15 9 4 15 -23 15
-48 10 -47 -8z M9395 2511 c-16 -10 -52 -43 -80 -72 l-50 -54 60 56 c33 31 74
64 90 72 17 9 26 16 20 17 -5 0 -23 -9 -40 -19z M9767 2496 c19 -37 29 -49 18
-21 -4 11 -7 27 -7 36 0 9 -6 16 -13 16 -11 0 -11 -6 2 -31z M11364 2517 c-36
-21 -133 -110 -129 -118 3 -4 -2 -9 -10 -12 -25 -10 -86 -112 -79 -132 5 -13
4 -16 -4 -11 -8 5 -10 2 -6 -9 8 -19 7 -19 29 24 9 18 12 30 6 27 -6 -4 -11
-3 -11 2 0 17 13 22 29 10 13 -10 14 -10 4 2 -14 16 -18 34 -5 26 4 -2 14 -1
22 5 10 6 11 9 3 9 -7 0 -13 5 -13 10 0 6 3 9 8 8 4 -2 8 0 9 5 6 20 134 138
164 151 19 9 27 15 19 15 -8 0 -24 -5 -36 -12z M4776 2460 c-14 -34 -26 -67
-26 -73 0 -7 14 19 30 57 16 38 28 71 26 73 -2 2 -15 -24 -30 -57z M9152 2490
c-13 -10 -22 -20 -22 -22 4 -11 -14 -37 -23 -31 -6 3 -7 1 -3 -5 4 -7 2 -12
-3 -12 -6 0 -11 -7 -11 -16 0 -9 -5 -12 -12 -8 -7 5 -8 3 -3 -5 4 -7 11 -9 15
-4 13 15 91 123 88 123 -2 -1 -13 -9 -26 -20z M11943 2483 c1 -18 5 -33 9 -33
4 0 10 -9 13 -21 4 -11 9 -19 11 -17 2 2 -5 26 -16 54 -17 44 -19 46 -17 17z
M4125 2490 c33 -4 79 -16 101 -28 44 -22 94 -74 94 -97 0 -8 6 -12 13 -9 15 5
19 34 5 34 -5 0 -6 5 -2 12 4 7 3 8 -5 4 -6 -4 -30 9 -56 32 -49 43 -102 63
-166 61 -40 -2 -39 -2 16 -9z M7841 2450 c-29 -26 -49 -50 -43 -54 5 -3 15 1
22 9 7 8 9 15 6 15 -5 0 52 52 73 67 2 2 2 5 0 7 -2 2 -28 -17 -58 -44z
M11016 2454 c-49 -48 -126 -154 -113 -154 2 0 19 21 37 48 18 26 56 71 84 100
62 64 55 70 -8 6z M3145 2459 c-59 -45 -67 -57 -13 -20 26 17 50 36 53 41 9
14 5 12 -40 -21z M6393 2445 c0 -27 2 -38 4 -22 2 15 2 37 0 50 -2 12 -4 0 -4
-28z M5816 2465 c-8 -22 10 -26 27 -7 15 16 15 18 -3 19 -10 1 -21 -5 -24 -12z
M2605 2453 c3 -8 -5 -13 -21 -13 -14 0 -22 -4 -19 -10 3 -5 1 -10 -6 -10 -7 0
-10 -3 -7 -6 5 -4 108 42 108 49 0 1 -14 2 -30 2 -20 0 -29 -4 -25 -12z M1824
2436 c-6 -6 -9 -17 -6 -24 2 -6 -1 -12 -6 -12 -5 0 -13 -7 -16 -16 -3 -8 -2
-12 4 -9 6 3 10 1 10 -4 0 -6 -5 -11 -11 -11 -5 0 -8 -4 -4 -9 3 -5 -3 -12
-12 -14 -15 -4 -14 -5 3 -6 18 -1 24 9 37 56 18 61 18 67 1 49z M2200 2443 c0
-6 -3 -19 -7 -29 -4 -12 -3 -15 6 -10 8 6 10 0 7 -21 -3 -15 1 -8 9 16 8 25
13 47 10 49 -3 3 -5 -1 -5 -9 0 -11 -2 -11 -10 1 -6 9 -10 10 -10 3z M5994
2408 c-11 -13 -35 -43 -54 -68 l-33 -45 37 38 c20 21 36 41 36 44 0 4 10 17
22 30 12 13 19 23 16 23 -2 0 -13 -10 -24 -22z M7480 2421 c-17 -5 -21 -9 -12
-15 7 -4 10 -12 7 -17 -14 -21 4 -7 19 16 9 14 15 25 14 24 -2 -1 -14 -4 -28
-8z M9534 2310 c0 -58 1 -81 3 -52 2 28 2 76 0 105 -2 28 -3 5 -3 -53z M2177
2370 c-10 -35 -8 -48 3 -30 8 12 10 10 10 -8 0 -14 5 -22 12 -20 14 5 20 38 5
35 -5 -1 -13 9 -17 23 l-6 25 -7 -25z M11148 2373 c-24 -28 -78 -116 -78 -127
0 -6 10 5 22 24 12 19 34 54 49 78 30 44 32 53 7 25z M3015 2371 c-6 -5 -46
-28 -90 -51 -44 -23 -69 -39 -55 -35 14 4 49 20 79 36 29 16 59 26 65 22 6 -3
8 -3 4 2 -4 4 -3 14 3 22 13 15 8 18 -6 4z M11992 2365 c3 -28 -19 -65 -40
-65 -15 0 -15 -2 -2 -10 12 -8 12 -10 1 -10 -8 0 -11 -3 -8 -7 4 -3 2 -12 -4
-20 -6 -7 -9 -13 -6 -13 4 0 22 25 42 56 28 43 33 59 25 72 -9 15 -10 15 -8
-3z M9048 2356 c-10 -7 -15 -16 -11 -19 11 -12 22 -8 33 13 12 23 3 25 -22 6z
M9108 2348 c-22 -34 -42 -74 -31 -63 14 15 55 85 50 85 -3 0 -11 -10 -19 -22z
M10412 2297 c-34 -34 -62 -65 -62 -69 0 -6 27 20 99 96 59 61 29 40 -37 -27z
M3811 2318 c-13 -22 -13 -22 5 -6 10 9 35 18 54 21 l35 4 -40 1 c-32 2 -43 -3
-54 -20z M3941 2326 c10 -8 89 -13 89 -5 0 5 -21 9 -47 9 -25 0 -44 -2 -42 -4z
M8037 2308 c-3 -10 -1 -16 4 -12 13 8 11 -3 -7 -37 -8 -17 -14 -33 -11 -35 4
-4 47 87 47 99 0 13 -29 0 -33 -15z M7723 2307 c-3 -6 -1 -7 5 -3 15 9 15 3 0
-29 -7 -16 -14 -21 -18 -14 -5 7 -9 5 -13 -6 -4 -9 -3 -13 3 -10 6 3 10 0 10
-7 0 -14 21 15 37 53 9 21 8 26 -3 26 -8 0 -18 -5 -21 -10z M9199 2288 c-7
-12 -19 -34 -27 -48 -16 -25 -16 -25 4 -4 25 26 47 65 41 71 -3 3 -11 -6 -18
-19z M12978 2285 c-13 -13 -34 -26 -48 -29 -14 -2 -27 -5 -29 -5 -2 -1 2 -8 9
-16 12 -14 7 -20 -15 -15 -5 1 -7 -2 -3 -6 4 -4 2 -14 -4 -23 -7 -9 17 12 53
47 36 34 73 62 84 62 28 -1 52 -22 58 -50 l4 -25 2 25 c3 56 -71 79 -111 35z
M4005 2281 c-3 -12 -13 -21 -22 -21 -10 0 -13 -6 -9 -16 3 -8 -1 -28 -9 -45
-9 -16 -13 -29 -10 -29 8 0 67 121 62 127 -3 2 -8 -5 -12 -16z M3752 2217
c-23 -40 -33 -61 -22 -48 17 20 23 22 38 10 16 -12 16 -12 0 5 -15 18 -15 21
8 58 14 22 24 41 22 43 -2 2 -23 -28 -46 -68z M11372 2268 c2 -7 -3 -12 -10
-10 -8 1 -11 -2 -8 -7 4 -5 -2 -11 -11 -13 -11 -2 -14 -6 -7 -10 6 -4 21 3 33
16 15 16 19 26 12 31 -7 4 -10 1 -9 -7z M3583 2210 c-28 -65 -21 -64 12 0 14
28 22 50 18 50 -5 0 -18 -23 -30 -50z M10780 2231 c0 -7 -5 -9 -12 -5 -7 5 -8
3 -3 -6 5 -8 2 -17 -6 -24 -12 -9 -22 -56 -13 -56 7 0 44 94 39 98 -3 3 -5 0
-5 -7z M11582 2223 c-5 -9 -36 -43 -68 -77 -33 -33 -52 -55 -43 -48 9 6 19 9
22 5 4 -3 7 1 7 11 0 11 5 15 13 10 6 -4 9 -4 5 0 -9 10 30 48 42 41 6 -4 7 1
3 11 -4 10 -2 15 3 11 6 -3 15 7 21 24 12 32 9 39 -5 12z M5633 2208 c2 -16 1
-28 -3 -28 -4 0 -10 -13 -12 -30 -3 -16 -4 -30 -2 -30 1 0 11 15 21 33 17 28
17 35 5 57 l-13 25 4 -27z M9832 2183 c-2 -43 1 -51 13 -47 10 4 12 10 6 18
-5 6 -11 27 -14 46 -3 27 -4 23 -5 -17z M11895 2180 c-14 -27 -23 -50 -20 -50
2 0 16 23 30 50 14 28 23 50 20 50 -2 0 -16 -22 -30 -50z M9955 2208 c-6 -5
-19 -16 -30 -24 -11 -8 -1 -6 23 6 23 11 42 22 42 24 0 6 -26 2 -35 -6z
M12070 2200 c-8 -16 -8 -20 2 -18 8 2 12 -5 11 -17 -1 -11 0 -14 3 -7 3 6 12
12 20 12 8 0 15 -6 15 -12 1 -7 2 -15 2 -18 0 -3 11 -16 25 -30 l25 -25 -24
44 c-13 24 -32 46 -41 48 -10 3 -18 10 -18 15 0 5 4 6 10 3 6 -3 7 1 4 9 -8
22 -21 20 -34 -4z M12995 2132 l-79 -87 73 70 c59 57 103 109 89 104 -2 0 -39
-40 -83 -87z M10337 2151 c-4 -35 -5 -66 -3 -68 6 -7 19 103 14 119 -3 7 -8
-16 -11 -51z M7656 2161 c-19 -48 -11 -88 10 -50 15 28 18 51 4 29 -14 -21
-13 5 1 32 6 11 9 22 6 24 -2 3 -12 -13 -21 -35z M4301 2149 c-7 -23 -15 -48
-17 -58 -3 -9 1 -5 9 9 15 25 32 90 24 90 -2 0 -9 -18 -16 -41z M6351 2173
c-1 -12 -7 -28 -13 -35 -16 -16 -21 -68 -7 -68 6 0 8 -4 4 -9 -3 -5 0 -13 6
-16 7 -5 9 4 5 26 -3 19 -1 49 5 67 6 18 8 38 6 45 -3 6 -6 2 -6 -10z M9116
2141 c-36 -69 -32 -78 4 -12 17 30 28 56 26 59 -3 2 -16 -19 -30 -47z M11270
2176 c6 -6 5 -15 -2 -25 -7 -9 0 -5 15 8 15 14 27 25 27 26 0 0 -11 1 -25 1
-16 0 -22 -3 -15 -10z M6077 2138 c-28 -76 -49 -158 -44 -176 4 -14 5 -14 6 3
1 11 15 63 31 115 30 98 35 132 7 58z M12476 2143 c15 -21 31 -41 34 -45 3 -4
6 1 6 11 0 11 -4 17 -9 14 -5 -3 -11 4 -13 14 -3 10 -14 25 -26 32 -16 10 -15
5 8 -26z M2340 2140 c-34 -7 -34 -7 -5 -8 17 0 44 4 60 8 27 7 27 8 5 8 -14
-1 -41 -4 -60 -8z M3544 2126 c-10 -43 -2 -59 36 -62 33 -3 34 -2 10 8 -14 6
-29 10 -34 9 -5 -1 -6 14 -3 34 7 40 1 47 -9 11z M3995 2084 c-43 -96 -58
-135 -53 -139 3 -3 23 39 46 92 23 53 40 99 37 101 -2 2 -16 -22 -30 -54z
M5787 2113 c-2 -5 -17 -30 -33 -58 l-28 -49 26 19 c16 11 28 30 28 43 0 12 4
22 8 22 5 0 9 7 9 15 0 16 -4 19 -10 8z M6613 2106 c0 -26 -25 -76 -36 -69 -6
3 -7 1 -3 -5 11 -18 14 -15 37 29 12 25 17 45 11 51 -5 5 -9 3 -9 -6z M11090
2108 c0 -7 -3 -23 -6 -35 -5 -17 -2 -23 10 -23 11 0 14 4 9 13 -4 6 -6 22 -4
35 1 12 0 22 -3 22 -3 0 -6 -6 -6 -12z M9994 2088 c-4 -6 -3 -8 4 -4 7 4 12
-10 15 -41 l3 -48 2 53 c2 49 -8 66 -24 40z M11845 2090 c-3 -5 -12 -7 -20 -4
-9 4 -13 -1 -12 -15 2 -28 11 -26 31 4 9 14 14 25 12 25 -3 0 -7 -4 -11 -10z
M4548 2065 c3 -19 0 -25 -14 -25 -15 0 -16 -2 -5 -9 11 -7 10 -10 -5 -14 -16
-4 -16 -5 -2 -6 19 -1 48 46 41 67 -8 22 -20 12 -15 -13z M8619 2068 c-1 -7
-1 -16 -1 -19 1 -4 -8 -15 -18 -24 -11 -10 -20 -28 -20 -39 0 -17 2 -18 9 -6
6 8 7 18 5 22 -3 4 -1 8 3 8 15 0 44 58 33 65 -5 3 -11 0 -11 -7z M12680 2069
c0 -4 -10 -18 -22 -30 l-23 -21 23 11 c12 6 22 16 22 22 0 6 4 8 8 5 4 -2 14
-1 21 3 9 6 7 10 -8 14 -12 3 -21 1 -21 -4z M2103 2024 c-6 -27 -10 -51 -8
-52 6 -6 27 78 23 90 -2 6 -9 -11 -15 -38z M7628 2035 c-4 -16 -9 -39 -12 -50
-4 -11 1 -5 9 14 9 18 14 41 13 50 -2 9 -7 3 -10 -14z M9861 2026 c-36 -19
-41 -24 -25 -30 10 -4 15 -4 11 1 -4 4 11 17 35 30 24 12 39 22 33 22 -5 0
-30 -10 -54 -23z M3885 2030 c3 -5 2 -10 -2 -10 -5 0 -9 -12 -10 -27 -2 -27
-2 -27 12 6 18 40 18 41 4 41 -5 0 -7 -4 -4 -10z M9470 2010 c8 -5 10 -10 4
-10 -5 0 -19 -7 -30 -15 -15 -12 -11 -12 19 2 25 11 33 19 25 25 -7 4 -17 8
-23 8 -5 0 -3 -5 5 -10z M11772 2014 c4 -3 0 -13 -8 -21 -8 -8 -12 -19 -9 -24
4 -5 -4 -9 -17 -9 -18 0 -20 -2 -8 -10 14 -9 46 7 36 18 -3 2 4 12 16 22 20
16 20 17 2 24 -10 4 -15 4 -12 0z M11934 1988 c-4 -7 -14 -22 -21 -34 -11 -17
-11 -21 1 -21 8 0 12 6 9 14 -4 9 0 11 11 7 12 -5 15 -2 10 11 -4 10 -1 21 7
26 9 6 10 9 2 9 -6 0 -15 -6 -19 -12z M10314 1860 c0 -63 1 -89 3 -57 2 31 2
83 0 115 -2 31 -3 5 -3 -58z M8272 1870 c-8 -47 -12 -116 -10 -155 l4 -70 2
82 c1 45 7 105 13 132 6 28 9 61 7 73 -2 13 -9 -15 -16 -62z M6261 1899 c-7
-23 -10 -44 -7 -47 3 -3 6 2 6 11 0 9 8 21 18 26 9 6 12 11 5 11 -6 0 -9 9 -6
20 10 38 -4 20 -16 -21z M12264 1911 c11 -21 12 -31 3 -40 -8 -8 -8 -11 0 -11
21 0 24 19 8 50 -8 16 -18 30 -21 30 -2 0 2 -13 10 -29z M11044 1916 c-3 -7
-3 -38 -1 -67 l3 -54 2 62 c2 49 5 62 20 66 16 4 16 5 -1 6 -10 0 -20 -5 -23
-13z M4202 1888 c-8 -23 -9 -35 -1 -43 7 -7 8 -5 4 8 -4 9 -3 17 2 17 5 0 10
11 11 25 2 33 -1 32 -16 -7z M7228 1886 c-10 -7 -15 -15 -12 -18 3 -3 -7 -8
-21 -12 -16 -4 -25 -13 -25 -26 0 -32 17 -23 50 25 33 49 34 51 8 31z M7816
1879 c-9 -11 -11 -21 -6 -24 16 -10 30 4 23 22 -4 10 -2 14 5 9 6 -3 13 -3 16
2 10 17 -23 8 -38 -9z M10615 1880 c-3 -11 -11 -20 -16 -20 -5 0 -8 -6 -6 -12
1 -7 -4 -12 -11 -10 -8 1 -11 -2 -7 -8 3 -6 10 -8 15 -5 14 9 50 75 40 75 -5
0 -12 -9 -15 -20z M1682 1834 c-6 -33 -12 -69 -11 -80 0 -10 7 10 15 46 8 36
13 72 12 80 -2 8 -9 -13 -16 -46z M11640 1825 c-29 -30 -57 -52 -62 -49 -5 3
-7 0 -6 -7 2 -8 -7 -13 -22 -13 -17 -1 -25 -6 -24 -18 1 -10 -4 -18 -12 -18
-8 0 -14 -5 -14 -12 0 -6 -6 -4 -13 7 -13 17 -14 16 -11 -6 1 -13 3 -25 3 -27
1 -2 27 17 59 42 54 42 172 156 161 156 -2 0 -29 -25 -59 -55z M5104 1838 c-9
-29 1 -32 19 -5 13 20 13 24 1 24 -7 0 -16 -9 -20 -19z M6475 1850 c-3 -5 -12
-7 -20 -4 -11 5 -14 -1 -13 -20 1 -14 3 -26 5 -26 1 0 11 14 23 30 12 17 19
30 16 30 -3 0 -7 -4 -11 -10z M9184 1852 c5 -8 -1 -12 -14 -12 -12 0 -28 -7
-36 -15 -9 -9 -11 -15 -4 -15 6 0 8 -5 4 -12 -5 -9 -3 -9 9 1 9 7 14 18 10 24
-3 5 -2 7 4 4 6 -4 18 0 28 7 14 10 15 15 5 21 -9 5 -11 4 -6 -3z M12200 1851
c0 -5 -6 -8 -12 -8 -20 2 -128 -52 -128 -64 0 -6 -4 -8 -9 -5 -5 3 -12 -1 -15
-9 -4 -13 -2 -14 14 -5 11 6 20 15 20 20 0 6 3 9 8 8 12 -5 92 34 92 44 0 5 4
7 9 4 5 -3 24 1 42 9 34 14 34 14 7 15 -16 0 -28 -4 -28 -9z M7780 1825 c-16
-17 -19 -25 -10 -25 9 0 7 -5 -6 -15 -10 -8 -15 -15 -10 -15 5 0 2 -8 -5 -17
-13 -16 -12 -17 4 -4 9 8 15 16 12 19 -3 3 4 11 15 19 12 8 17 20 13 30 -4 10
-2 14 5 9 6 -3 13 -2 16 3 14 22 -13 18 -34 -4z M9418 1834 c-16 -8 -28 -17
-28 -20 0 -2 10 0 21 7 17 9 24 8 31 -2 8 -11 9 -10 5 3 -3 9 -1 19 6 22 7 2
8 5 2 5 -5 0 -22 -7 -37 -15z M5933 1765 c0 -44 2 -61 4 -37 2 23 2 59 0 80
-2 20 -4 1 -4 -43z M8962 1778 c-30 -85 -27 -100 3 -18 14 36 23 69 22 73 -1
5 -13 -20 -25 -55z M4394 1812 c5 -8 -1 -12 -16 -12 -19 0 -20 -2 -8 -10 13
-9 12 -12 -4 -25 -11 -8 -15 -15 -9 -15 19 0 55 57 42 66 -8 4 -9 3 -5 -4z
M7977 1814 c-3 -3 -3 -13 0 -22 4 -9 2 -13 -4 -9 -6 4 -23 -12 -38 -36 -15
-23 -37 -53 -49 -66 l-21 -24 27 19 c15 10 33 30 40 44 25 48 55 68 45 30 -3
-11 -1 -20 4 -20 5 0 9 20 9 45 0 45 -2 50 -13 39z M9293 1752 c-83 -62 -124
-102 -105 -102 7 0 12 5 12 11 0 5 6 7 13 3 6 -4 9 -3 4 1 -9 10 22 47 34 39
5 -3 9 -1 9 5 0 5 24 26 53 47 61 44 73 54 65 54 -4 0 -42 -26 -85 -58z M5061
1791 c-7 -5 -10 -14 -6 -21 4 -6 -1 -17 -11 -25 -11 -8 -14 -15 -8 -15 7 0 24
16 38 35 26 34 19 46 -13 26z M7155 1790 c3 -6 -4 -10 -17 -11 -13 0 -17 -3
-10 -6 17 -7 15 -23 -4 -23 -8 0 -13 -4 -9 -9 3 -6 -3 -15 -12 -21 -10 -6 -12
-10 -4 -8 8 2 30 23 49 46 27 32 31 42 18 42 -10 0 -14 -4 -11 -10z M8455
1792 c8 -9 -16 -42 -30 -42 -8 0 -15 -5 -15 -11 0 -18 22 -5 47 27 18 24 19
31 8 31 -8 0 -13 -2 -10 -5z M9093 1786 c-6 -8 -9 -17 -6 -20 4 -3 -1 -6 -11
-6 -9 0 -14 -4 -11 -10 3 -5 1 -10 -6 -10 -7 0 -9 -3 -6 -7 8 -7 67 45 67 59
0 12 -13 9 -27 -6z M9728 1718 c-20 -43 -35 -78 -33 -78 8 0 76 141 73 149 -2
4 -20 -28 -40 -71z M11722 1717 c-39 -40 -72 -77 -72 -82 0 -6 5 -2 11 9 9 15
13 16 20 5 6 -10 9 -11 9 -1 0 6 -1 14 -2 17 -2 2 24 32 57 65 33 33 57 60 54
60 -2 0 -37 -33 -77 -73z M4519 1726 c-27 -39 -33 -57 -27 -72 7 -16 8 -16 4
4 -3 14 1 25 10 29 8 3 14 11 14 19 0 8 5 14 10 14 6 0 13 0 18 1 4 0 10 -10
14 -23 6 -23 6 -23 7 -1 1 12 -3 24 -8 27 -4 3 -6 17 -3 31 2 14 3 25 1 25 -2
-1 -20 -25 -40 -54z M9487 1748 c-8 -18 -33 -64 -55 -101 -22 -37 -39 -67 -37
-67 16 0 121 187 111 197 -2 3 -11 -10 -19 -29z M4853 1710 c0 -36 2 -50 4
-32 2 17 2 47 0 65 -2 17 -4 3 -4 -33z M6566 1720 c-22 -34 -23 -39 -7 -28 11
6 17 16 15 20 -3 5 1 11 9 14 7 2 14 11 14 19 0 21 -1 20 -31 -25z M4333 1736
c8 -21 -4 -28 -22 -13 -14 11 -14 10 -2 -6 13 -16 15 -16 32 -1 23 21 23 20 3
28 -11 4 -15 2 -11 -8z M5201 1721 c-18 -25 -19 -31 -7 -38 8 -4 17 -26 19
-48 4 -32 4 -30 5 15 0 30 3 63 7 73 13 31 -2 30 -24 -2z M3813 1685 c0 -33 2
-45 4 -27 2 18 2 45 0 60 -2 15 -4 0 -4 -33z M5015 1710 c6 -10 -30 -42 -38
-35 -4 3 -5 2 -2 -2 3 -3 -1 -13 -7 -22 -7 -9 7 2 30 24 23 21 42 40 42 40 0
1 -7 2 -15 2 -8 0 -12 -3 -10 -7z M6340 1675 c-24 -24 -48 -41 -53 -38 -6 4
-7 1 -2 -6 5 -9 22 1 56 35 27 27 49 50 49 51 0 7 -9 0 -50 -42z M8395 1710
c7 -11 -70 -81 -80 -73 -4 5 -5 2 0 -5 5 -10 20 -2 56 34 27 27 49 49 49 49 0
1 -7 2 -15 2 -8 0 -12 -3 -10 -7z M6627 1704 c-4 -4 -2 -13 5 -21 6 -7 8 -16
5 -19 -3 -4 -1 -11 4 -18 5 -6 16 -20 24 -31 10 -13 8 -4 -4 25 -10 25 -20 51
-23 58 -2 7 -7 10 -11 6z M7276 1672 c-11 -15 -13 -21 -6 -14 8 6 21 12 30 11
10 0 11 -2 3 -6 -7 -2 -13 -11 -13 -20 0 -13 2 -13 14 0 14 13 12 57 -3 57 -3
0 -15 -13 -25 -28z M12333 1640 c0 -36 2 -50 4 -32 2 17 2 47 0 65 -2 17 -4 3
-4 -33z M9607 1629 c-20 -33 -31 -56 -23 -50 13 11 70 111 63 111 -2 0 -20
-27 -40 -61z M12673 1615 c0 -44 2 -61 4 -37 2 23 2 59 0 80 -2 20 -4 1 -4
-43z M4265 1640 c-22 -21 -46 -39 -53 -40 -7 0 -10 -4 -7 -10 3 -5 -1 -10 -9
-10 -9 0 -16 -5 -16 -11 0 -5 -4 -8 -9 -4 -5 3 -12 1 -16 -5 -3 -5 1 -10 11
-10 14 0 158 129 144 130 -3 0 -23 -18 -45 -40z M11885 1650 c-10 -11 -21 -17
-26 -15 -4 3 -10 1 -14 -5 -4 -6 -10 -8 -15 -5 -4 3 -10 -4 -13 -15 -9 -35 9
-30 53 15 24 25 42 45 39 45 -3 0 -14 -9 -24 -20z M7604 1651 c4 -5 0 -11 -6
-14 -9 -3 -7 -7 5 -12 18 -8 47 10 47 29 0 6 -5 4 -10 -4 -6 -10 -10 -11 -10
-2 0 6 -7 12 -16 12 -8 0 -13 -4 -10 -9z M7210 1595 c-24 -24 -42 -46 -39 -48
2 -2 24 19 48 45 55 61 50 63 -9 3z M7321 1629 c-1 -9 6 -22 14 -29 8 -7 12
-17 8 -24 -3 -6 -2 -8 2 -3 5 4 22 -5 39 -20 17 -16 13 -8 -10 17 -23 25 -44
52 -47 60 -5 13 -6 12 -6 -1z M11612 1617 c-17 -18 -19 -24 -7 -24 8 0 15 7
15 14 0 8 5 11 10 8 6 -3 10 1 10 9 0 21 -3 20 -28 -7z M5065 1562 c-53 -51
-66 -68 -52 -69 11 -1 17 1 14 4 -8 7 16 32 26 26 4 -2 7 3 7 12 0 9 5 13 10
10 6 -3 10 -1 10 6 0 7 14 28 32 46 55 57 26 35 -47 -35z M5532 1606 c-8 -19
-8 -27 2 -35 9 -8 12 -2 12 24 0 19 -1 35 -1 35 -1 0 -7 -11 -13 -24z M9655
1584 c-15 -25 -59 -81 -98 -123 -39 -42 -53 -59 -31 -38 22 20 44 34 49 30 4
-5 5 -3 2 3 -4 6 2 19 13 29 11 10 20 14 21 9 1 -5 4 2 8 16 4 14 17 30 29 36
12 6 19 13 16 16 -3 4 2 20 11 37 24 47 10 37 -20 -15z M10572 1570 c-34 -33
-84 -71 -110 -84 -26 -14 -43 -25 -39 -26 13 0 85 39 92 50 4 6 11 8 16 5 5
-4 9 -1 9 5 0 6 5 8 10 5 6 -4 10 -3 9 2 -3 20 2 27 12 13 8 -12 9 -11 7 5 -2
13 2 19 12 17 8 -2 12 0 7 4 -4 4 5 20 20 36 46 48 21 30 -45 -32z M6445 1569
c-28 -28 -72 -64 -100 -80 -27 -16 -45 -29 -40 -29 6 0 29 11 52 24 28 16 43
20 46 13 2 -7 3 -4 2 5 -2 9 0 18 4 20 10 5 96 98 90 98 -3 0 -27 -23 -54 -51z
M12033 1557 c-27 -29 -55 -64 -62 -77 l-12 -25 20 25 c11 14 21 29 21 33 0 5
6 5 13 1 6 -4 9 -3 4 1 -4 5 12 28 35 52 23 24 40 43 37 43 -4 0 -29 -24 -56
-53z M7770 1550 c-24 -22 -42 -41 -40 -43 3 -2 25 16 50 40 56 53 50 55 -10 3z
M9295 1580 c-3 -5 -3 -10 1 -10 5 0 -10 -18 -31 -40 -21 -22 -37 -40 -34 -40
14 0 90 88 81 94 -6 3 -13 2 -17 -4z M8038 1565 c11 -22 48 -58 72 -69 8 -4 4
1 -10 13 -14 11 -35 32 -48 48 -14 16 -19 19 -14 8z M10138 1533 c24 -24 49
-43 55 -43 6 0 0 7 -13 17 -14 9 -39 28 -56 42 -16 14 -10 7 14 -16z M4340
1503 l-55 -58 58 55 c53 50 62 60 54 60 -1 0 -27 -26 -57 -57z M7106 1514
c-50 -36 -54 -44 -8 -20 22 12 74 58 61 55 -2 -1 -26 -16 -53 -35z M8398 1517
c-28 -25 -32 -33 -18 -33 10 0 18 5 17 11 -1 5 5 9 13 7 8 -2 12 0 7 4 -4 4 0
16 10 26 25 28 12 21 -29 -15z M10875 1526 c30 -27 117 -76 132 -76 4 1 -14
13 -42 27 -27 14 -66 37 -85 51 l-35 24 30 -26z M1637 1483 c6 -84 11 -88 12
-10 1 37 -3 67 -7 67 -5 0 -7 -26 -5 -57z M7427 1514 c3 -8 8 -13 11 -10 2 3
18 -2 34 -10 16 -8 33 -14 38 -12 4 2 -14 13 -40 25 -37 16 -47 18 -43 7z
M5281 1512 c-1 -9 -8 -11 -20 -7 -11 3 -22 2 -24 -2 -3 -4 5 -9 18 -9 12 -1
46 -13 74 -27 28 -15 53 -22 56 -16 4 5 -3 9 -14 9 -12 0 -21 5 -21 10 0 6 -8
10 -19 10 -10 0 -26 10 -34 23 -9 12 -16 16 -16 9z M8872 1505 c-41 -22 -48
-37 -9 -19 20 10 37 21 37 26 0 9 2 10 -28 -7z M6046 1493 c-5 -11 -2 -14 10
-9 8 3 25 1 36 -5 11 -6 22 -9 24 -7 2 3 -12 12 -30 21 -31 14 -35 14 -40 0z
M11410 1485 c-25 -13 -41 -24 -37 -25 11 0 87 39 87 45 0 7 0 7 -50 -20z
M12295 1470 c3 -5 2 -10 -3 -10 -5 0 -12 -11 -14 -25 -7 -33 -2 -32 17 5 18
34 18 40 4 40 -5 0 -7 -4 -4 -10z M8195 1460 c19 -8 103 -14 94 -6 -2 2 -29 6
-59 9 -34 3 -47 2 -35 -3z M6198 1453 c17 -2 47 -2 65 0 17 2 3 4 -33 4 -36 0
-50 -2 -32 -4z M3916 1438 c7 -12 64 -40 73 -36 4 2 -12 12 -35 24 -24 11 -41
17 -38 12z M8957 1421 c-3 -13 -4 -21 -1 -18 2 2 24 -16 48 -39 24 -24 52 -44
62 -44 13 1 10 5 -11 14 -36 16 -70 52 -83 85 l-9 25 -6 -23z M11148 1423 c23
-2 59 -2 80 0 20 2 1 4 -43 4 -44 0 -61 -2 -37 -4z M12527 1370 c-19 -33 -34
-60 -32 -60 6 0 61 83 68 103 11 31 1 18 -36 -43z M11743 1355 c0 -27 2 -38 4
-22 2 15 2 37 0 50 -2 12 -4 0 -4 -28z M1646 1382 c-3 -6 -2 -12 3 -14 5 -1
11 -10 13 -18 4 -18 42 -50 60 -50 7 0 26 -9 42 -19 16 -11 35 -17 42 -14 8 3
17 -2 20 -11 8 -22 37 -20 58 3 10 11 25 17 37 14 13 -4 19 0 19 10 0 10 6 13
19 10 17 -4 19 -1 14 39 -7 52 -13 62 -13 21 0 -29 -34 -73 -46 -60 -4 4 -15
-5 -26 -18 -22 -29 -40 -32 -58 -10 -7 9 -19 14 -26 11 -7 -3 -23 3 -36 13
-13 10 -35 21 -50 25 -18 4 -34 19 -46 43 -11 20 -22 31 -26 25z M9400 1345
c-25 -13 -41 -24 -37 -25 11 0 87 39 87 45 0 7 0 7 -50 -20z M9135 1299 c11
-4 47 -8 80 -8 75 1 61 6 -30 12 -41 3 -62 1 -50 -4z M12425 1159 c-52 -40
-57 -46 -17 -23 29 16 73 55 61 53 -2 0 -22 -14 -44 -30z M11870 1135 c0 -9
103 -55 120 -54 8 0 -1 6 -21 14 -20 7 -50 20 -67 29 -18 9 -32 14 -32 11z
M12098 1063 c23 -2 61 -2 85 0 23 2 4 4 -43 4 -47 0 -66 -2 -42 -4z"/>
  </g>
</svg>